<?xml version="1.0" encoding="utf-8"?>
<!-- Generator: Adobe Illustrator 16.0.0, SVG Export Plug-In . SVG Version: 6.00 Build 0)  -->
<!DOCTYPE svg PUBLIC "-//W3C//DTD SVG 1.1//EN" "http://www.w3.org/Graphics/SVG/1.1/DTD/svg11.dtd">
<svg version="1.1" id="Layer_1" xmlns="http://www.w3.org/2000/svg" xmlns:xlink="http://www.w3.org/1999/xlink" x="0px" y="0px"
	 width="297.64px" height="419.529px" viewBox="0 0 297.64 419.529" enable-background="new 0 0 297.64 419.529"
	 xml:space="preserve">
<g>
	<g>
		<path fill="#371A45" d="M130.923,234.186c-0.616,0-1.116-0.5-1.116-1.116v-68.015c0-0.616,0.5-1.116,1.116-1.116
			c0.617,0,1.116,0.5,1.116,1.116v68.015C132.039,233.686,131.54,234.186,130.923,234.186z"/>
	</g>
	<g>
		<g>
			<path fill="#00BDFF" d="M178.924,111.941c0.249,0.499,0.491,1,0.724,1.504c12.469,26.964,1.307,59.13-25.454,72.481
				c-26.758,13.351-59.172,2.926-73.218-23.252c-0.262-0.488-0.517-0.983-0.766-1.482c-3.114-6.242-4.934-12.79-5.562-19.342
				c-2.092-21.795,9.004-43.619,29.534-54.254c0.249-0.132,0.504-0.26,0.759-0.387c0.255-0.127,0.514-0.256,0.771-0.378
				c20.848-10.005,44.952-5.743,61.102,9.034C171.673,100.307,175.81,105.698,178.924,111.941z"/>
		</g>
		<g>
			<g>
				<defs>
					<circle id="SVGID_1_" cx="129.568" cy="136.568" r="55.161"/>
				</defs>
				<clipPath id="SVGID_2_">
					<use xlink:href="#SVGID_1_"  overflow="visible"/>
				</clipPath>
				<g clip-path="url(#SVGID_2_)">
					<g>
						<path fill="#5CE205" d="M158.622,167.206c-0.257-2.721-1.776-5.273-4.037-6.779c-2.903-1.933-3.563-6.166-3.964-9.203
							c-0.324-2.449-1.867-4.354-4.255-2.665c-5.489,3.882-13.449-2.022-15.011-7.685c-1.363-6.058,0.075-11.356,3.151-16.508
							c2.135-3.575,6.627-4.651,10.233-2.886c4.25,2.08,10.877-4.355,11.567-8.56c0.079-0.479,0.131-1.127-0.039-1.509
							c-1.72-3.865-7.611-4.114-9.581-0.527c-1.275,2.321-3.912,3.166-6.267,1.91c-4.328-2.307-5.69-0.38-7.163,3.868
							c-0.475,1.369-0.48,3.846-2.178,2.794c-1.668-1.035-3.098-3.099-2.231-5.063c2.114-4.791,4.081-9.878,5.344-15.041
							c0.083-0.337,0.419-0.794,0.652-0.818c5.373-0.563,4.81-7.491,5.863-11.353c0.372-1.361,0.087-1.984-0.791-2.522
							c-0.896-0.55-1.314,0.074-1.661,1.031c-0.582,1.605-1.153,3.218-1.744,4.817c-0.304,0.82-0.414,2.068-1.327,1.934
							c-1.07-0.158-1.62-1.461-1.557-2.646c0.179-3.391,1.078-7.177,3.143-9.919c1.563-2.077,4.581-3.579,6.977-1.984
							c2.976,1.98,5.295,1.78,8.553,0.106c1.368-0.703,2.84-1.464,4.288-1.9c2.445-0.736,4.191-2.705,4.811-5.191
							c0.656-2.479,2.651-4.267,5.14-4.739c1.568-0.298,2.581-1.165,3.039-3.056c0.814-3.366,3.472-5.906,6.675-6.987
							c4.763-1.608,8.695-1.343,12.146,2.214c0.942,0.971,1.925,0.593,2.846,0.395c2.408-0.518,4.979-0.913,7.266-1.483
							c1.732-0.432,4.22,0.389,5.34,1.776c0.754,0.937,1.631,1.041,2.497,0.917c1.189-0.17,2.47-0.192,3.595-0.322
							c2.715-0.313,3.87,0.244,5.299,2.69c0.566,2.398-1.029,5.604-3.275,6.186c-0.652,0.169-1.441,0.279-2.191,0.292
							c-2.102,0.034-2.449,1.356-1.746,4.011c1.511,5.697-0.379,14.087-6.455,16.2c-1.475,0.513-2.291,1.091-1.603,3.432
							c0.36,1.226,0.564,2.673-0.04,3.939c-1.384,2.903-2.129,6.18-1.234,9.301c0.704,2.454-1.652,4.306-3.861,3.01
							c-2.4-1.408-4.742-3.014-6.973-4.709c-1.724-1.311-2.707-0.897-3.438,1.405c-0.63,1.985-1.673,4.001-2.155,5.92
							c-0.613,2.443-2.664,4.133-4.908,2.259c-2.564-1.632-3.939-2.254-6.584-1.587c-0.938,0.236-1.988-0.127-2.894-0.814
							c-0.921-0.699-1.987-1.475-2.472,0.419c-0.455,1.784,1.02,1.672,1.682,2.215c1.203,0.984,2.516,1.763,3.775,2.564
							c2.212,1.408,2.461,3.642,1.021,5.734c-1.404,2.04-4.047,3.724-6.492,2.034c-1.648-1.047-3.268-2.144-4.908-3.192
							c-0.777-0.497-1.51-1.378-2.221,0.415c-0.754,1.9,0.338,2.042,1.059,2.529c2.869,1.939,5.75,3.852,8.686,5.687
							c2.525,1.579,3.371,4.785,2.031,7.402c-2.764,5.397-2.249,11.235-0.281,17.3c0.806,2.481,1.409,4.933,1.951,7.497
							c1.106,5.086-1.283,12.677-6.904,14.048c-2.236,0.5-4.084-1.059-4.727-3.112C159.527,170.924,159.082,169.033,158.622,167.206
							z"/>
					</g>
					<g>
						<path fill="#5CE205" d="M52.798,132.364c-2.344-4.824-1.985-8.602,3.393-10.678c7.946-3.453,15.789-7.14,23.515-11.032
							c1.303-0.657,2.64-1.447,3.799-0.012c0.98,1.214,0.913,2.743,0.414,4.36c-0.884,2.869,1.247,3.587,3.251,4.561
							c1.688,0.82,3.547-0.233,4.937-1.627c1.222-1.226-0.026-2.747-0.275-4.106c-0.174-0.951-0.72-1.965,0.005-2.803
							c0.749-0.866,1.517-0.047,2.158,0.397c1.286,0.889,2.511,1.028,3.938,0.217c1.25-0.711,2.587-0.671,3.545,0.77
							c0.948,1.426,0.8,3.175,0.228,4.762c-2.331,6.462-4.954,13.017-7.233,19.304c-0.979,2.699-3.982,3.623-6.376,4.621
							c-2.402,1.002-2.462,3.673-1.423,5.688c0.429,0.831,0.905,1.436,1.667,1.128c3.035-1.227,5.572,0.989,7.811,2.548
							c1.719,1.197,4.079,1.944,6.141,0.866c2.467-1.29,4.493-1.148,6.926,0.316c1.908,1.148,4.596,2.872,6.975,2.197
							c3.103-0.879,4.721,8.101,4.097,10.416c-1.708,6.338-4.034,13.114-6.422,19.346c-1.298,3.386-1.511,6.804-0.4,10.127
							c0.556,1.662,0.997,3.615,1.407,5.457c0.254,1.141,1.076,2.529,0.465,3.418c-0.762,1.107-1.9-0.053-2.784-0.579
							c-2.986-1.792-4.856-5.154-5.732-8.41c-0.651-2.415-1.41-4.896-1.909-7.326c-0.993-4.837-2.709-9.963-7.173-12.769
							c-4.039-2.779-5.513-11.294-4.291-15.569c0.319-1.117,1.765-2.313,0.654-3.565c-1.157-1.306-2.705-3.006-4.272-2.384
							c-3.21,1.273-6.738-0.732-9.217-2.645c-2.417-1.864-4.86-3.74-7.553-5.227c-3.958-2.147-5.064-6.801-6.429-10.615
							c-1.159-3.237-5.887-6.854-9.35-6.411C54.749,127.43,53.927,130.322,52.798,132.364z"/>
					</g>
					<g>
						<path fill="#5CE205" d="M230.543,128.828c0.03,0.097,0.081,0.191,0.09,0.291c0.129,1.527,1.858,3.09,0.479,4.441
							c-1.313,1.287-3.951,2.619-5.828,1.604c-2.859-0.916-3.99-0.733-6.459,0.634c-1.987,1.102-4.553,1.064-6.087-0.881
							c-1.774-2.109-1.614-5.012-0.717-7.437c1.398-3.782,5.088-7.726,9.319-7.489C225.539,120.227,229.291,125.042,230.543,128.828
							z"/>
					</g>
					<g>
						<path fill="#5CE205" d="M106.533,83.06c0.996-0.546,2.055-1.129,2.992-1.625c2.005-1.061,5.474-4.041,7.302-0.842
							c2.615,4.58,3.175,8.85,1.504,13.546c-1.423,3.997-3.155,8.293-4.515,12.521c-1.14,3.546-2.555,3.991-4.863,1.987
							c-1.33-1.153-2.863-2.211-3.39-4.062c-0.864-3.036-3.086-5.311-5.79-6.779c-1.498-0.813-3.104-2.025-2.589-4.813
							c0.444-2.409,0.97-5.438,3.383-6.664c1.96-0.996,3.979-2.159,5.97-3.251C106.536,83.072,106.535,83.066,106.533,83.06z"/>
					</g>
					<g>
						<path fill="#5CE205" d="M90.495,105.649c-1.708,1.043-3.178,1.782-4.761,1.121c-0.668-0.278-1.228-0.823-1.36-1.64
							c-0.182-1.122,0.711-1.337,1.3-1.688c0.99-0.591,2.017-1.08,3.021-1.645c1.787-1.005,3.822-1.543,4.416,1.146
							C93.656,105.417,91.129,104.662,90.495,105.649z"/>
					</g>
					<g>
						<path fill="#5CE205" d="M198.333,115.199c2.443-0.212,6.04,1.623,7.224,3.448c0.756,1.166-0.318,1.845-0.93,1.951
							c-1.835,0.319-6.139-1.957-7.223-3.63C197.006,116.355,197.345,115.615,198.333,115.199z"/>
					</g>
					<g>
						<path fill="#5CE205" d="M172.346,154.498c-0.4-2.093-0.57-4.818,1.411-6.146c1.481-0.992,1.688,1.188,1.983,2.396
							c0.507,2.076,0.713,4.809-1.352,6.146C172.734,157.966,172.923,155.578,172.346,154.498z"/>
					</g>
					<g>
						<path fill="#5CE205" d="M214.902,78.638c0.379,2.559-1.977,7.432-3.951,7.929c-0.52,0.131-1.41-0.471-1.137-1.155
							c0.852-2.389,1.559-5.298,3.679-6.789C213.873,78.355,214.718,77.959,214.902,78.638z"/>
					</g>
					<g>
						<path fill="#5CE205" d="M213.856,117.487c-0.739-0.031-2.116,1.763-2.585-0.585c-0.5-2.508,1.133-3.422,2.805-3.778
							c0.893-0.19,2.24-1.533,2.697,0.182C217.476,115.469,215.896,117.13,213.856,117.487z"/>
					</g>
					<g>
						<path fill="#5CE205" d="M236.291,129.769c-0.123,0.798,1.521,1.89-0.1,2.315c-1.691,0.444-2.566-1.104-2.952-2.729
							c-0.222-0.935-1.397-2.423-0.07-2.834C235.46,125.812,235.551,128.318,236.291,129.769z"/>
					</g>
					<g>
						<path fill="#5CE205" d="M129.695,97.256c0.458,1.758,1.269,4.38-0.639,5.562c-1.198,0.741-1.368-1.17-1.558-2.171
							c-0.337-1.779-1.319-4.463,0.423-5.781C129.421,93.73,129,96.773,129.695,97.256z"/>
					</g>
					<g>
						<path fill="#5CE205" d="M206.926,107.982c0.444,1.805,0.919,3.625-0.891,4.223c-1.444,0.477-1.31-1.382-1.676-2.355
							c-0.636-1.69-0.285-3.325,0.944-3.935C206.792,105.176,206.466,107.287,206.926,107.982z"/>
					</g>
					<g>
						<path fill="#5CE205" d="M126.491,101.77c0.272,1.164,0.135,2.085-0.833,2.53c-0.659,0.303-1.163,0.093-1.4-0.81
							c-0.296-1.127-0.078-2.121,0.7-2.736C125.791,100.096,126.204,100.835,126.491,101.77z"/>
					</g>
				</g>
			</g>
			<g>
				<defs>
					<circle id="SVGID_3_" cx="129.568" cy="136.568" r="55.161"/>
				</defs>
				<clipPath id="SVGID_4_">
					<use xlink:href="#SVGID_3_"  overflow="visible"/>
				</clipPath>
				<g clip-path="url(#SVGID_4_)">
					<g>
						<path fill="#54A520" d="M163.97,176.783c-2.328,0-4.096-1.798-4.73-3.824c-0.463-1.475-0.85-3.032-1.225-4.538l-0.271-1.132
							c-0.233-2.472-1.597-4.763-3.648-6.128c-3.086-2.055-3.863-6.147-4.35-9.821c-0.162-1.228-0.664-2.193-1.276-2.461
							c-0.422-0.185-0.958-0.05-1.595,0.4c-2.168,1.533-4.918,1.821-7.744,0.812c-3.952-1.411-7.58-5.189-8.626-8.982l-0.01-0.041
							c-1.306-5.8-0.271-11.25,3.254-17.153c2.317-3.88,7.208-5.268,11.378-3.227c1.384,0.679,3.01,0.132,4.131-0.446
							c2.882-1.487,5.769-4.975,6.178-7.463c0.104-0.628,0.052-0.947,0.024-1.01c-0.792-1.78-2.574-2.478-3.978-2.536
							c-1.739-0.077-3.28,0.724-4.023,2.076c-1.51,2.752-4.716,3.726-7.455,2.265c-1.52-0.81-2.63-1.059-3.393-0.758
							c-1.044,0.409-1.763,1.95-2.521,4.137c-0.091,0.261-0.167,0.593-0.247,0.943c-0.234,1.023-0.499,2.185-1.44,2.577
							c-0.539,0.226-1.141,0.136-1.789-0.267c-2.066-1.281-3.614-3.812-2.574-6.169c2.527-5.727,4.209-10.46,5.294-14.895
							c0.136-0.553,0.68-1.408,1.417-1.485c3.203-0.336,3.893-3.341,4.518-7.549c0.169-1.14,0.329-2.215,0.586-3.159
							c0.302-1.107,0.038-1.27-0.4-1.538c-0.032-0.02-0.06-0.035-0.082-0.046c-0.057,0.083-0.155,0.259-0.288,0.625
							c-0.199,0.549-0.396,1.1-0.594,1.649c-0.381,1.06-0.762,2.119-1.152,3.174c-0.056,0.151-0.104,0.32-0.153,0.491
							c-0.209,0.724-0.643,2.229-2.13,2.009c-1.609-0.237-2.391-2.014-2.309-3.564c0.127-2.407,0.727-6.96,3.318-10.403
							c1.853-2.463,5.346-4.066,8.17-2.188c2.531,1.685,4.464,1.698,7.661,0.056l0.067-0.034c1.345-0.69,2.868-1.473,4.37-1.926
							c2.081-0.627,3.654-2.332,4.209-4.56c0.737-2.788,2.971-4.85,5.831-5.393c1.315-0.25,1.995-0.944,2.347-2.397
							c0.853-3.524,3.563-6.371,7.249-7.616c5.499-1.855,9.648-1.081,13.063,2.437c0.47,0.484,0.862,0.417,1.704,0.22
							c0.107-0.025,0.215-0.051,0.322-0.073c0.978-0.21,1.992-0.402,2.973-0.589c1.437-0.271,2.922-0.553,4.265-0.888
							c2.06-0.514,4.917,0.438,6.239,2.078c0.442,0.548,0.9,0.71,1.687,0.598c0.704-0.101,1.426-0.151,2.124-0.2
							c0.527-0.037,1.025-0.071,1.494-0.126c3.078-0.354,4.574,0.403,6.162,3.122l0.066,0.114l0.03,0.128
							c0.699,2.962-1.239,6.549-3.913,7.242c-0.745,0.193-1.597,0.308-2.397,0.32c-0.369,0.006-0.849,0.065-1.036,0.313
							c-0.188,0.25-0.319,0.901,0.129,2.591c1.508,5.688-0.092,14.85-7.02,17.259c-1.113,0.388-1.574,0.548-1.045,2.351
							c0.535,1.823,0.506,3.317-0.09,4.567c-1.521,3.189-1.919,6.109-1.183,8.677c0.429,1.495-0.013,2.974-1.153,3.857
							c-1.135,0.88-2.668,0.94-4.003,0.157c-2.29-1.344-4.665-2.948-7.06-4.768c-0.799-0.607-1.122-0.571-1.203-0.546
							c-0.099,0.031-0.454,0.233-0.861,1.516c-0.283,0.895-0.646,1.791-0.998,2.657c-0.454,1.123-0.884,2.185-1.142,3.21
							c-0.452,1.799-1.526,3.135-2.877,3.574c-1.112,0.362-2.321,0.073-3.407-0.814c-2.388-1.518-3.523-2.033-5.85-1.446
							c-1.145,0.289-2.439-0.055-3.642-0.968c-0.205-0.155-0.659-0.5-0.89-0.573c-0.044,0.067-0.119,0.216-0.193,0.509
							c-0.145,0.564-0.133,0.569,0.508,0.836c0.281,0.117,0.6,0.249,0.877,0.477c0.955,0.782,2.014,1.447,3.037,2.092
							c0.219,0.137,0.438,0.274,0.654,0.412c1.223,0.778,1.998,1.83,2.245,3.041c0.259,1.274-0.077,2.636-0.972,3.937
							c-1.108,1.612-2.702,2.745-4.264,3.032c-1.208,0.224-2.404-0.044-3.457-0.771c-0.839-0.532-1.699-1.098-2.559-1.662
							c-0.773-0.508-1.545-1.016-2.322-1.513c-0.117-0.075-0.234-0.157-0.35-0.24c-0.102-0.072-0.24-0.17-0.344-0.231
							c-0.055,0.081-0.137,0.225-0.232,0.468c-0.343,0.863-0.259,0.909,0.285,1.209c0.154,0.084,0.307,0.17,0.447,0.265
							c2.352,1.59,5.461,3.67,8.659,5.67c2.905,1.816,3.915,5.492,2.349,8.552c-2.348,4.586-2.42,9.869-0.227,16.626
							c0.727,2.237,1.354,4.647,1.975,7.587c1.143,5.249-1.181,13.531-7.559,15.087C164.658,176.745,164.308,176.783,163.97,176.783
							z M159.494,167.056l0.234,0.939c0.368,1.48,0.749,3.013,1.195,4.437c0.471,1.503,1.827,2.933,3.692,2.515
							c5.247-1.279,7.202-8.555,6.235-12.999c-0.618-2.922-1.213-5.206-1.928-7.412c-2.348-7.232-2.242-12.943,0.334-17.975
							c1.145-2.237,0.408-4.925-1.714-6.252c-3.222-2.014-6.349-4.106-8.712-5.704c-0.098-0.065-0.203-0.122-0.31-0.181
							c-0.696-0.383-1.991-1.095-1.075-3.404c0.225-0.565,0.611-1.344,1.381-1.571s1.398,0.221,1.857,0.548
							c0.092,0.065,0.185,0.131,0.277,0.19c0.784,0.501,1.563,1.013,2.342,1.524c0.852,0.56,1.704,1.12,2.564,1.667
							c0.697,0.48,1.416,0.645,2.163,0.507c1.11-0.204,2.28-1.063,3.129-2.297c0.617-0.897,0.858-1.791,0.696-2.586
							c-0.15-0.74-0.643-1.382-1.464-1.904c-0.214-0.136-0.429-0.271-0.646-0.407c-1.069-0.673-2.175-1.368-3.215-2.219
							c-0.078-0.064-0.269-0.144-0.438-0.214c-0.67-0.278-2.063-0.857-1.54-2.901c0.091-0.354,0.366-1.433,1.311-1.762
							c0.972-0.341,1.884,0.353,2.549,0.857c0.756,0.574,1.536,0.815,2.144,0.663c2.973-0.752,4.572-0.022,7.274,1.697l0.091,0.067
							c0.633,0.528,1.23,0.706,1.777,0.528c0.746-0.243,1.418-1.155,1.711-2.325c0.287-1.146,0.761-2.313,1.219-3.443
							c0.338-0.835,0.688-1.699,0.951-2.528c0.307-0.968,0.85-2.297,2.01-2.665c0.817-0.259,1.734,0.011,2.804,0.824
							c2.339,1.777,4.655,3.342,6.885,4.65c0.71,0.416,1.468,0.405,2.028-0.029c0.566-0.439,0.768-1.179,0.539-1.977
							c-0.859-2.995-0.426-6.334,1.287-9.924c0.4-0.84,0.396-1.923-0.012-3.311c-0.832-2.834,0.261-3.854,2.158-4.514
							c5.346-1.859,7.396-9.472,5.894-15.141c-0.354-1.339-0.656-3.015,0.17-4.106c0.494-0.654,1.307-0.995,2.414-1.013
							c0.655-0.011,1.378-0.107,1.983-0.264c1.694-0.439,3.055-3.024,2.666-5.007c-1.207-2.03-2.01-2.412-4.365-2.14
							c-0.51,0.059-1.051,0.097-1.575,0.134c-0.667,0.046-1.355,0.094-1.996,0.186c-1.396,0.2-2.478-0.204-3.31-1.236
							c-0.906-1.125-3.022-1.827-4.439-1.474c-1.393,0.347-2.902,0.633-4.363,0.91c-0.971,0.184-1.974,0.374-2.93,0.579
							c-0.097,0.021-0.193,0.044-0.29,0.066c-0.872,0.204-2.188,0.514-3.374-0.709c-2.964-3.054-6.322-3.65-11.232-1.993
							c-3.109,1.05-5.389,3.427-6.099,6.359c-0.513,2.121-1.733,3.336-3.731,3.716c-2.188,0.415-3.893,1.985-4.453,4.098
							c-0.701,2.825-2.725,5.002-5.408,5.811c-1.348,0.406-2.732,1.118-4.072,1.806l-0.066,0.034
							c-3.119,1.604-5.919,2.189-9.444-0.156c-2.043-1.359-4.612,0.223-5.784,1.78c-2.309,3.068-2.85,7.229-2.966,9.436
							c-0.042,0.802,0.291,1.565,0.727,1.707c0.09-0.165,0.191-0.514,0.255-0.735c0.062-0.213,0.123-0.423,0.193-0.613
							c0.388-1.049,0.768-2.104,1.146-3.158c0.198-0.552,0.396-1.104,0.596-1.653c0.257-0.709,0.621-1.469,1.375-1.732
							c0.494-0.173,1.025-0.089,1.577,0.249c1.283,0.787,1.637,1.836,1.181,3.508c-0.23,0.843-0.382,1.868-0.543,2.953
							c-0.557,3.75-1.248,8.402-5.872,9.02c-0.042,0.059-0.083,0.134-0.095,0.176c-1.11,4.537-2.824,9.363-5.394,15.188
							c-0.708,1.604,0.742,3.245,1.889,3.957c0.082,0.051,0.143,0.08,0.186,0.098c0.153-0.248,0.307-0.922,0.394-1.303
							s0.177-0.775,0.299-1.128c0.944-2.724,1.866-4.543,3.545-5.201c1.291-0.507,2.837-0.238,4.867,0.844
							c1.893,1.009,4.029,0.354,5.078-1.557c1.068-1.945,3.227-3.091,5.643-2.99c2.465,0.104,4.58,1.476,5.518,3.583
							c0.211,0.476,0.244,1.152,0.104,2.012c-0.503,3.059-3.692,6.98-7.11,8.744c-2.123,1.095-4.099,1.256-5.716,0.464
							c-3.337-1.634-7.245-0.539-9.088,2.546c-3.275,5.483-4.246,10.518-3.052,15.841c0.898,3.222,4.124,6.56,7.513,7.771
							c1.605,0.573,3.972,0.937,6.132-0.592c1.464-1.035,2.613-0.884,3.319-0.576c1.221,0.534,2.066,1.936,2.319,3.847
							c0.436,3.29,1.107,6.938,3.579,8.584C157.544,161.337,159.193,164.086,159.494,167.056z"/>
					</g>
					<g>
						<path fill="#54A520" d="M114.561,203.949c-0.751,0-1.432-0.471-1.992-0.858c-0.161-0.11-0.316-0.219-0.464-0.308
							c-2.826-1.696-5.06-4.953-6.133-8.938c-0.174-0.647-0.357-1.3-0.54-1.955c-0.497-1.778-1.011-3.618-1.382-5.424
							c-0.872-4.244-2.43-9.466-6.778-12.198c-4.497-3.095-5.924-12.173-4.67-16.559c0.124-0.432,0.347-0.824,0.564-1.203
							c0.54-0.946,0.584-1.19,0.278-1.535c-1.146-1.293-2.345-2.525-3.287-2.149c-2.845,1.129-6.238,0.198-10.082-2.766
							c-2.346-1.809-4.771-3.68-7.44-5.152c-3.749-2.034-5.115-6.056-6.32-9.604c-0.171-0.505-0.34-1.002-0.514-1.486
							c-1.011-2.824-5.352-6.224-8.407-5.833c-1.565,0.2-2.341,1.802-3.161,3.497c-0.212,0.438-0.432,0.893-0.665,1.313
							l-0.822,1.487l-0.743-1.529c-1.507-3.1-1.847-5.604-1.04-7.652c0.72-1.83,2.371-3.254,4.908-4.233
							c7.76-3.373,15.656-7.077,23.436-10.997l0.2-0.102c1.248-0.634,3.134-1.594,4.683,0.324c1.054,1.306,1.241,2.998,0.571,5.174
							c-0.564,1.83,0.297,2.325,2.299,3.271c0.165,0.077,0.33,0.155,0.495,0.235c1.506,0.731,3.248-0.774,3.927-1.456
							c0.407-0.408,0.336-0.831-0.1-1.98c-0.164-0.432-0.333-0.878-0.418-1.344c-0.033-0.18-0.084-0.374-0.14-0.58
							c-0.221-0.826-0.522-1.957,0.345-2.96c1.182-1.364,2.556-0.328,3.073,0.063c0.087,0.065,0.171,0.13,0.254,0.188
							c1.06,0.733,1.929,0.784,2.999,0.176c1.826-1.039,3.589-0.647,4.716,1.048c0.986,1.482,1.098,3.401,0.323,5.549
							c-1.203,3.335-2.499,6.733-3.751,10.021c-1.169,3.068-2.379,6.241-3.482,9.285c-1.006,2.773-3.813,3.902-6.069,4.81
							c-0.271,0.109-0.538,0.217-0.797,0.325c-0.672,0.28-1.128,0.736-1.354,1.356c-0.319,0.875-0.178,2.039,0.376,3.113
							c0.301,0.584,0.467,0.707,0.509,0.73c0.004-0.003,0.02-0.007,0.044-0.017c3.167-1.279,5.815,0.618,7.943,2.144
							c0.237,0.17,0.472,0.338,0.702,0.499c0.682,0.475,3.073,1.935,5.228,0.808c2.709-1.416,5.039-1.313,7.79,0.343l0.262,0.157
							c1.736,1.05,4.114,2.485,6.018,1.947c0.633-0.179,1.589-0.192,2.558,0.764c2.253,2.225,3.172,8.725,2.631,10.73
							c-1.546,5.736-3.776,12.455-6.45,19.432c-1.266,3.305-1.396,6.512-0.387,9.531c0.59,1.766,1.056,3.861,1.431,5.545
							c0.06,0.27,0.164,0.574,0.273,0.896c0.334,0.982,0.75,2.206,0.057,3.213c-0.39,0.566-0.861,0.757-1.189,0.817
							C114.771,203.941,114.665,203.949,114.561,203.949z M90.515,150.986c1.754,0,3.278,1.719,4.25,2.814
							c1.203,1.357,0.408,2.749-0.067,3.581c-0.172,0.302-0.334,0.586-0.399,0.813c-1.122,3.923,0.199,12.023,3.942,14.601
							c4.883,3.067,6.595,8.729,7.537,13.317c0.358,1.745,0.864,3.555,1.353,5.304c0.185,0.66,0.369,1.318,0.544,1.971
							c0.955,3.549,2.9,6.422,5.334,7.884c0.178,0.105,0.368,0.235,0.563,0.37c0.276,0.191,0.786,0.543,0.98,0.545
							c0.001-0.006,0.026-0.03,0.061-0.08c0.191-0.278-0.067-1.036-0.274-1.646c-0.12-0.354-0.245-0.718-0.325-1.081
							c-0.366-1.645-0.821-3.69-1.382-5.369c-1.143-3.418-1.003-7.025,0.413-10.723c2.652-6.921,4.863-13.58,6.394-19.259
							c0.424-1.575-0.475-7.345-2.167-9.016c-0.44-0.435-0.718-0.355-0.837-0.322c-2.642,0.748-5.399-0.917-7.412-2.135
							l-0.259-0.156c-2.214-1.332-3.913-1.414-6.063-0.29c-2.047,1.071-4.685,0.726-7.053-0.923
							c-0.237-0.166-0.478-0.338-0.722-0.514c-1.96-1.404-3.986-2.857-6.254-1.941c-1.092,0.44-2.027-0.078-2.782-1.541
							c-0.776-1.505-0.95-3.196-0.465-4.526c0.396-1.086,1.203-1.91,2.333-2.381c0.267-0.11,0.541-0.221,0.818-0.333
							c2.129-0.856,4.332-1.742,5.068-3.774c1.108-3.057,2.32-6.236,3.492-9.312c1.25-3.28,2.543-6.671,3.741-9.99
							c0.403-1.117,0.707-2.713-0.132-3.974c-0.382-0.574-1.042-1.25-2.375-0.492c-1.663,0.945-3.257,0.861-4.875-0.259
							c-0.102-0.07-0.206-0.148-0.313-0.229c-0.165-0.124-0.464-0.351-0.604-0.387c-0.015,0.012-0.04,0.033-0.072,0.071
							c-0.233,0.269-0.175,0.601,0.025,1.35c0.062,0.23,0.125,0.469,0.171,0.718c0.056,0.308,0.19,0.661,0.332,1.035
							c0.412,1.086,0.976,2.572-0.301,3.853c-2,2.006-4.167,2.661-5.947,1.798c-0.159-0.077-0.319-0.153-0.479-0.229
							c-1.801-0.852-4.269-2.018-3.231-5.386c0.491-1.594,0.41-2.721-0.257-3.546c-0.569-0.705-1.047-0.604-2.51,0.141l-0.206,0.104
							c-7.81,3.935-15.736,7.653-23.561,11.054c-2.12,0.819-3.397,1.877-3.936,3.247c-0.475,1.206-0.392,2.695,0.257,4.521
							c0.864-1.758,1.994-3.736,4.308-4.033c3.941-0.502,9.039,3.487,10.292,6.989c0.177,0.492,0.349,0.999,0.523,1.513
							c1.155,3.4,2.349,6.916,5.496,8.624c2.793,1.542,5.273,3.454,7.671,5.303c3.317,2.559,6.127,3.406,8.354,2.523
							C89.85,151.046,90.187,150.986,90.515,150.986z"/>
					</g>
					<g>
						<path fill="#54A520" d="M216.147,137.405c-1.603,0-3.096-0.666-4.101-1.939c-1.723-2.048-2.04-5.077-0.852-8.29
							c1.555-4.203,5.551-8.324,10.195-8.063c4.826,0.27,8.748,5.683,9.99,9.439l0.02,0.053c0.038,0.099,0.096,0.248,0.112,0.441
							c0.032,0.379,0.229,0.826,0.438,1.299c0.445,1.009,1.119,2.533-0.221,3.847c-1.373,1.347-4.412,3.004-6.787,1.791
							c-2.498-0.792-3.365-0.697-5.689,0.589C218.242,137.132,217.171,137.405,216.147,137.405z M220.981,120.865
							c-3.622,0-6.87,3.512-8.132,6.923c-0.455,1.23-1.311,4.333,0.564,6.563c1.31,1.659,3.443,1.53,4.985,0.677
							c2.752-1.524,4.156-1.663,7.154-0.703l0.15,0.064c1.454,0.786,3.718-0.406,4.792-1.458c0.408-0.401,0.334-0.76-0.158-1.874
							c-0.239-0.541-0.51-1.152-0.577-1.803l-0.007-0.017c-0.018-0.045-0.034-0.091-0.049-0.136
							c-1.26-3.803-4.833-8.028-8.412-8.229C221.189,120.867,221.084,120.865,220.981,120.865z"/>
					</g>
					<g>
						<path fill="#54A520" d="M111.274,110.719c-1.132,0-2.173-0.773-2.9-1.404c-0.183-0.159-0.37-0.316-0.558-0.474
							c-1.207-1.014-2.575-2.162-3.102-4.014c-0.928-3.258-3.428-5.194-5.362-6.245c-1.019-0.554-3.724-2.022-3.036-5.749
							l0.02-0.106c0.449-2.438,1.064-5.777,3.832-7.184c1.365-0.693,2.79-1.486,4.167-2.253c0.39-0.218,0.78-0.435,1.169-0.65
							l0-0.001l0.957-0.546c0.894-0.49,1.821-0.999,2.652-1.438c0.306-0.161,0.668-0.383,1.05-0.617
							c1.544-0.946,3.465-2.124,5.264-1.663c0.892,0.229,1.621,0.828,2.165,1.781c2.795,4.896,3.294,9.434,1.569,14.279
							c-0.519,1.456-1.065,2.917-1.643,4.463c-0.985,2.634-2.003,5.357-2.863,8.033c-0.718,2.231-1.561,3.372-2.734,3.7
							C111.704,110.692,111.487,110.719,111.274,110.719z M107.567,83.499l0.005,0.018l-0.61,0.335
							c-0.588,0.322-1.178,0.65-1.769,0.979c-1.392,0.774-2.831,1.576-4.226,2.285c-1.989,1.011-2.471,3.624-2.896,5.93l-0.02,0.107
							c-0.379,2.054,0.539,3.007,2.143,3.878c2.232,1.212,5.122,3.466,6.217,7.313c0.379,1.33,1.428,2.212,2.54,3.145
							c0.195,0.164,0.39,0.327,0.58,0.492c0.847,0.735,1.509,1.063,1.916,0.95c0.292-0.082,0.879-0.521,1.529-2.541
							c0.873-2.715,1.898-5.458,2.891-8.111c0.576-1.539,1.119-2.993,1.633-4.437c1.561-4.385,1.117-8.336-1.439-12.813
							c-0.303-0.53-0.653-0.84-1.071-0.947c-1.079-0.276-2.645,0.686-3.904,1.458c-0.407,0.249-0.792,0.485-1.148,0.674
							C109.194,82.609,108.372,83.058,107.567,83.499z"/>
					</g>
					<g>
						<path fill="#54A520" d="M86.965,107.906c-0.511,0-1.033-0.097-1.571-0.321c-1.034-0.432-1.723-1.274-1.891-2.313
							c-0.253-1.567,0.899-2.159,1.453-2.443c0.092-0.048,0.182-0.093,0.266-0.143c0.596-0.356,1.205-0.677,1.794-0.986
							c0.417-0.219,0.833-0.438,1.247-0.671c1.666-0.936,2.977-1.166,4.01-0.704c0.856,0.383,1.428,1.2,1.699,2.43
							c0.531,2.406-1.221,2.894-2.063,3.128c-0.224,0.063-0.598,0.167-0.676,0.25l-0.109,0.171l-0.168,0.099
							C89.645,107.201,88.344,107.906,86.965,107.906z M91.142,101.859c-0.389,0-1.02,0.148-2.014,0.707
							c-0.428,0.24-0.859,0.468-1.29,0.694c-0.595,0.313-1.156,0.607-1.711,0.939c-0.114,0.068-0.238,0.132-0.364,0.197
							c-0.566,0.291-0.561,0.325-0.518,0.592c0.089,0.551,0.5,0.83,0.829,0.968c1.087,0.453,2.152,0.032,3.821-0.976
							c0.417-0.486,1.034-0.658,1.541-0.799c0.891-0.248,0.984-0.274,0.813-1.049c-0.144-0.653-0.379-1.057-0.697-1.199
							C91.463,101.895,91.331,101.859,91.142,101.859z"/>
					</g>
					<g>
						<path fill="#54A520" d="M204.273,121.508c-2.377,0-6.475-2.309-7.609-4.06c-0.305-0.47-0.385-1.016-0.225-1.535
							c0.2-0.648,0.751-1.19,1.551-1.527l0.129-0.054l0.138-0.012c2.651-0.227,6.633,1.676,8.04,3.848
							c0.579,0.893,0.403,1.626,0.247,1.984c-0.329,0.754-1.124,1.203-1.765,1.315C204.621,121.495,204.452,121.508,204.273,121.508
							z M198.552,116.069c-0.291,0.146-0.406,0.298-0.427,0.364c-0.003,0.009-0.006,0.019,0.019,0.057
							c0.945,1.458,4.91,3.488,6.332,3.24c0.176-0.03,0.402-0.174,0.451-0.283c0.023-0.054-0.021-0.179-0.111-0.319
							C203.871,117.67,200.71,115.969,198.552,116.069z"/>
					</g>
					<g>
						<path fill="#54A520" d="M173.667,158.047c-0.186,0-0.365-0.034-0.537-0.103c-0.84-0.333-1.068-1.269-1.271-2.094
							c-0.088-0.356-0.178-0.725-0.291-0.938l-0.063-0.118l-0.025-0.132c-0.246-1.282-0.991-5.183,1.786-7.044
							c0.765-0.512,1.368-0.44,1.739-0.289c0.992,0.402,1.266,1.688,1.484,2.72c0.036,0.173,0.071,0.339,0.107,0.489
							c1.041,4.264-0.365,6.212-1.729,7.096C174.445,157.909,174.042,158.047,173.667,158.047z M173.191,154.215
							c0.176,0.377,0.28,0.803,0.382,1.216c0.057,0.231,0.142,0.581,0.226,0.79c0.032-0.018,0.068-0.039,0.111-0.067
							c1.285-0.832,1.613-2.58,0.975-5.196c-0.041-0.166-0.08-0.35-0.121-0.541c-0.08-0.376-0.236-1.114-0.406-1.396
							c-0.029,0.016-0.064,0.036-0.109,0.066C173.049,149.889,172.703,151.567,173.191,154.215z"/>
					</g>
					<g>
						<path fill="#54A520" d="M210.802,87.466c-0.533,0-1.105-0.26-1.49-0.699c-0.426-0.485-0.544-1.114-0.318-1.682
							c0.11-0.311,0.229-0.662,0.35-1.019c0.746-2.215,1.593-4.724,3.642-6.166c0.32-0.226,1.147-0.719,1.929-0.437
							c0.418,0.15,0.716,0.486,0.84,0.944l0.021,0.101c0.421,2.84-2.085,8.278-4.607,8.913
							C211.049,87.451,210.927,87.466,210.802,87.466z M210.646,85.705c-0.001,0.001-0.001,0.002-0.002,0.003
							C210.645,85.707,210.645,85.706,210.646,85.705z M210.806,85.703L210.806,85.703L210.806,85.703z M210.67,85.635
							c0.033,0.026,0.078,0.052,0.113,0.063c1.298-0.403,3.267-4.045,3.28-6.396c-0.021,0.014-0.043,0.027-0.063,0.042
							c-1.577,1.11-2.293,3.233-2.985,5.287C210.9,84.971,210.787,85.308,210.67,85.635z"/>
					</g>
					<g>
						<path fill="#54A520" d="M212.156,118.996c-0.209,0-0.426-0.042-0.643-0.144c-0.831-0.393-1.039-1.436-1.107-1.778
							c-0.291-1.458-0.225-4.022,3.486-4.813c0.128-0.027,0.361-0.142,0.568-0.242c0.58-0.282,1.375-0.669,2.148-0.316
							c0.485,0.223,0.825,0.677,1.011,1.352c0.362,1.132,0.249,2.234-0.325,3.189c-0.658,1.093-1.855,1.862-3.287,2.112
							l-0.094,0.017l-0.041-0.002c-0.083,0.029-0.249,0.119-0.363,0.18C213.159,118.739,212.679,118.996,212.156,118.996z
							 M215.855,113.339c-0.164,0.043-0.443,0.179-0.623,0.267c-0.312,0.151-0.633,0.308-0.973,0.38
							c-2.257,0.481-2.34,1.657-2.123,2.743c0.047,0.237,0.098,0.383,0.135,0.467c0.123-0.049,0.291-0.14,0.404-0.2
							c0.325-0.174,0.689-0.369,1.094-0.39c0.885-0.17,1.635-0.643,2.014-1.271c0.312-0.518,0.362-1.108,0.152-1.757l-0.014-0.045
							C215.898,113.443,215.875,113.381,215.855,113.339z"/>
					</g>
					<g>
						<path fill="#54A520" d="M235.628,133.042c-0.486,0-0.947-0.125-1.361-0.373c-1.105-0.664-1.637-2.058-1.887-3.11
							c-0.039-0.166-0.148-0.418-0.256-0.663c-0.299-0.687-0.67-1.541-0.314-2.318c0.137-0.298,0.438-0.694,1.098-0.898
							c2.57-0.797,3.35,1.454,3.768,2.663c0.131,0.381,0.256,0.74,0.401,1.026l0.13,0.253l-0.036,0.232
							c0.028,0.092,0.133,0.278,0.204,0.405c0.252,0.449,0.598,1.064,0.313,1.737c-0.29,0.684-1.029,0.877-1.271,0.941
							C236.148,133.008,235.884,133.042,235.628,133.042z M233.435,127.363c0.039,0.213,0.209,0.604,0.308,0.829
							c0.138,0.315,0.278,0.641,0.354,0.959c0.239,1.007,0.633,1.738,1.078,2.006c0.133,0.08,0.352,0.173,0.729,0.09
							c-0.024-0.043-0.048-0.086-0.068-0.123c-0.183-0.325-0.401-0.715-0.431-1.161c-0.154-0.337-0.277-0.695-0.398-1.043
							C234.425,127.238,234.205,127.125,233.435,127.363z"/>
					</g>
					<g>
						<path fill="#54A520" d="M128.565,103.646c-0.197,0-0.362-0.047-0.49-0.104c-0.814-0.367-1.01-1.517-1.168-2.44
							c-0.02-0.117-0.039-0.229-0.058-0.331c-0.051-0.267-0.116-0.555-0.185-0.855c-0.403-1.773-0.956-4.204,0.858-5.576
							c0.485-0.368,0.94-0.475,1.352-0.316c0.691,0.264,0.85,1.073,1.002,1.856c0.053,0.271,0.141,0.72,0.226,0.855l0.171,0.119
							l0.133,0.507c0.488,1.848,1.225,4.641-1.002,6.021C129.084,103.578,128.801,103.646,128.565,103.646z M128.389,95.344
							c-0.021,0.014-0.043,0.029-0.069,0.049c-1.049,0.794-0.801,2.318-0.366,4.229c0.072,0.317,0.141,0.62,0.194,0.902
							c0.021,0.109,0.041,0.229,0.063,0.354c0.063,0.369,0.206,1.204,0.391,1.433c0.024-0.011,0.059-0.027,0.106-0.056
							c1.29-0.799,0.953-2.537,0.419-4.558l-0.025-0.094c-0.306-0.358-0.413-0.902-0.524-1.472
							C128.533,95.9,128.464,95.548,128.389,95.344z"/>
					</g>
					<g>
						<path fill="#54A520" d="M205.609,113.164c-0.297,0-0.569-0.072-0.816-0.216c-0.752-0.437-0.936-1.35-1.084-2.083
							c-0.056-0.272-0.107-0.529-0.174-0.706c-0.813-2.16-0.246-4.23,1.377-5.036c0.59-0.292,1.12-0.325,1.577-0.098
							c0.739,0.366,0.897,1.198,1.026,1.866c0.039,0.205,0.098,0.517,0.15,0.608l0.084,0.127l0.05,0.212
							c0.428,1.735,1.074,4.357-1.487,5.202C206.066,113.123,205.831,113.164,205.609,113.164z M205.671,106.716
							c-0.762,0.399-0.963,1.555-0.486,2.822c0.117,0.309,0.186,0.648,0.252,0.978c0.055,0.269,0.141,0.697,0.235,0.875
							c0.022-0.005,0.052-0.013,0.087-0.024c0.815-0.27,0.882-0.843,0.34-3.054c-0.172-0.331-0.246-0.716-0.317-1.09
							C205.754,107.078,205.714,106.872,205.671,106.716z"/>
					</g>
					<g>
						<path fill="#54A520" d="M125.141,105.09c-0.246,0-0.445-0.06-0.592-0.129c-0.445-0.211-0.758-0.648-0.931-1.303
							c-0.372-1.414-0.033-2.661,0.93-3.423c0.57-0.45,1.046-0.434,1.345-0.341c0.7,0.218,1.025,1.013,1.23,1.681l0.012,0.044
							c0.383,1.635-0.021,2.739-1.2,3.281C125.632,105.04,125.366,105.09,125.141,105.09z M125.51,101.18
							c-0.03,0.015-0.077,0.042-0.142,0.094c-0.691,0.546-0.637,1.415-0.471,2.048c0.084,0.319,0.184,0.428,0.216,0.442
							c0.012,0.007,0.097,0.014,0.268-0.065c0.277-0.127,0.791-0.363,0.47-1.756C125.693,101.433,125.568,101.245,125.51,101.18z"/>
					</g>
				</g>
			</g>
		</g>
		<g opacity="0.4">
			<path fill="#FFFFFF" d="M136.321,93.093c12.236-0.307,28.747,6.693,32.459,21.278c3.521,13.835-9.648,4.9-17.093-3.373
				C145.548,104.177,127.917,93.304,136.321,93.093z"/>
		</g>
		<g opacity="0.6">
			<path fill="#FFFFFF" d="M103.3,92.006c0.25-0.132,0.504-0.259,0.76-0.386c0.255-0.128,0.514-0.257,0.771-0.378
				c20.847-10.006,44.952-5.743,61.102,9.033c4.857,4.442,8.994,9.834,12.109,16.076c0.248,0.498,0.491,1,0.725,1.503
				c4.741,10.256,6.063,21.263,4.41,31.702c2.842-11.707,1.887-24.4-3.529-36.112c-0.232-0.504-0.475-1.005-0.724-1.504
				c-3.114-6.242-7.251-11.634-12.109-16.075c-16.15-14.777-40.254-19.039-61.102-9.034c-0.258,0.122-0.516,0.251-0.771,0.378
				c-0.255,0.127-0.51,0.255-0.76,0.387c-16.139,8.359-26.443,23.636-29.098,40.376C78.727,112.99,88.591,99.626,103.3,92.006z"/>
		</g>
		<g>
			<circle fill="none" cx="129.568" cy="136.568" r="55.161"/>
		</g>
		<g>
			<path fill="#371A45" d="M129.567,193.216c-31.236,0-56.649-25.412-56.649-56.648s25.413-56.648,56.649-56.648
				c31.237,0,56.649,25.412,56.649,56.648c0,22.063-12.958,42.276-33.011,51.494c-3.774,1.777-6.537,2.618-10.943,3.726
				l-0.031,0.008C138.105,192.739,133.845,193.216,129.567,193.216z M141.899,190.344h0.004H141.899z M129.567,82.896
				c-29.595,0-53.672,24.077-53.672,53.672s24.077,53.673,53.672,53.673c4.049,0,8.082-0.452,11.985-1.344
				c4.293-1.079,6.816-1.848,10.398-3.533c19.012-8.74,31.289-27.892,31.289-48.796C183.24,106.973,159.162,82.896,129.567,82.896z"
				/>
		</g>
		<g opacity="0.35">
			<path fill="#371A45" d="M153.751,181.957c-26.756,13.349-59.171,2.924-73.218-23.253c-0.262-0.488-0.515-0.983-0.764-1.481
				c-3.114-6.242-4.934-12.792-5.563-19.342c-0.449-4.678-0.292-9.359,0.443-13.926c0.862,5.396,2.55,10.753,5.121,15.903
				c0.249,0.498,0.501,0.993,0.764,1.481c14.047,26.177,46.462,36.604,73.218,23.252c16.565-8.261,27.15-23.73,29.855-40.712
				C187.324,147.054,175.863,170.926,153.751,181.957z"/>
		</g>
	</g>
	<g>
		<g>
			<g>
				<path fill="#FFFFFF" d="M170.832,261.727c0,0,22.554,5.877,23.358,14.725c0.701,7.716-7.756,33.729-12.723,36.587
					c-3.623,2.085-14.546-1.737-14.546-1.737"/>
			</g>
			<g opacity="0.35">
				<path fill="#371A45" d="M194.227,277.896c-0.26,9.082-8.069,32.443-12.76,35.142c-3.624,2.086-14.546-1.737-14.546-1.737
					l1.734-10.118c0,0,10.923,3.822,14.547,1.737C186.589,300.97,191.604,288.238,194.227,277.896z"/>
			</g>
			<g>
				<path fill="#371A45" d="M176.962,314.515c-5.291,0.001-10.5-2.579-10.813-2.735c-0.551-0.277-0.771-0.948-0.495-1.498
					c0.276-0.551,0.947-0.773,1.499-0.496c0.098,0.049,9.869,4.876,15.139,0.984c4.34-3.207,11.223-26.723,10.783-34.253
					c-0.291-4.988-9.686-9.162-13.279-10.35c-0.586-0.193-0.904-0.824-0.711-1.41c0.193-0.585,0.825-0.903,1.41-0.71
					c0.586,0.193,14.369,4.821,14.809,12.34c0.459,7.863-6.285,32.188-11.686,36.178
					C181.664,314.01,179.304,314.515,176.962,314.515z"/>
			</g>
			<g>
				<path fill="#FFFFFF" d="M144.868,264.597c0,0,0.984,7.98-2.475,2.507c-3.157-4.998-7.087-13.333-10.556-26.923
					c-0.029-0.11-0.059-0.224-0.087-0.334c0,0-1.563-0.137-3.479-1.095c-4.518-2.258-3.55-11.057-2.676-14.048
					c1.026-3.524,3.453-2.572,3.453-2.572c0.851-1.394,2.53-2.134,5.359-2.092c5.311,0.078,6.392,4.372,6.392,4.372
					c4.869,14.651,10.8,23.681,14.33,28.18c1.867,2.387,3.063,3.498,3.063,3.498L144.868,264.597z"/>
			</g>
			<g opacity="0.35">
				<path fill="#371A45" d="M144.868,264.597c0,0,0.984,7.98-2.475,2.507c-3.157-4.998-7.087-13.333-10.556-26.923
					c1.163-0.282,2.875-0.815,3.778-1.62c2.26-2.021,2.67-6.675,2.67-6.675c0.935,4.488,0,7.116-1.092,8.598
					c-1.176,1.591-1.536,3.647-0.851,5.505c0.997,2.699,2.254,5.636,4.245,7.532c4.573,4.355,10.949,2.403,14.541-0.929
					c1.868,2.387,3.063,3.498,3.063,3.498L144.868,264.597z"/>
			</g>
			<g opacity="0.35">
				<path fill="#371A45" d="M130.172,239.507c0,0,4.124,1.507,6.87-4.728c0,0-1.585,0.792-5.496,0.591
					c-3.883-0.199-6.517-3.895-6.517-3.895S124.76,238.194,130.172,239.507z"/>
			</g>
			<g>
				<path fill="#371A45" d="M157.626,256.21c-0.269,0-0.539-0.094-0.756-0.285c-0.393-0.344-9.697-8.684-17.163-31.149l-0.024-0.081
					c-0.036-0.133-0.975-3.439-5.295-3.505c-2.002-0.025-3.382,0.37-4.101,1.188c-0.766,0.872-0.977,2.406-0.644,4.688
					c0.278,1.904,1.36,2.998,2.216,2.918c1.009-0.095,2.021-1.931,1.86-5.74c-0.027-0.635,0.466-1.171,1.101-1.197
					c0.629-0.026,1.171,0.466,1.198,1.101c0.241,5.697-1.879,7.935-3.944,8.128c-2.246,0.213-4.272-1.887-4.708-4.878
					c-0.442-3.031-0.063-5.108,1.192-6.537c1.2-1.367,3.115-2.017,5.864-1.971c4.858,0.072,7.006,3.405,7.479,5.197
					c7.243,21.771,16.394,30.028,16.485,30.109c0.476,0.42,0.521,1.146,0.104,1.623C158.263,256.078,157.946,256.21,157.626,256.21z
					"/>
			</g>
			<g>
				<path fill="#371A45" d="M148.386,275.202c-0.195,0-0.392-0.05-0.574-0.155c-0.396-0.229-9.696-5.914-16.99-34.188
					c-0.716-0.15-1.829-0.459-3.065-1.077c-5.066-2.533-4.366-11.635-3.268-15.398c0.458-1.572,1.238-2.64,2.318-3.17
					c1.315-0.646,2.528-0.204,2.662-0.151c0.591,0.231,0.883,0.899,0.651,1.491c-0.229,0.584-0.883,0.876-1.471,0.658
					c-0.041-0.014-0.442-0.134-0.851,0.079c-0.458,0.239-0.838,0.84-1.1,1.737c-0.873,2.992-1.511,10.896,2.088,12.695
					c1.673,0.837,3.056,0.978,3.07,0.979l0.807,0.077l0.204,0.786c7.025,27.737,16.021,33.444,16.111,33.499
					c0.541,0.326,0.72,1.029,0.399,1.573C149.161,274.999,148.779,275.202,148.386,275.202z"/>
			</g>
			<g>
				<path fill="#371A45" d="M132.551,241.016c-0.303,0-0.617-0.021-0.94-0.062c-0.611-0.078-1.044-0.637-0.967-1.248
					s0.636-1.042,1.248-0.967c1.173,0.148,2.053-0.083,2.692-0.707c1.272-1.243,1.746-4.133,1.334-8.137
					c-0.306-2.976-1.314-3.622-1.324-3.624c-0.599-0.145-0.968-0.747-0.823-1.347s0.748-0.969,1.347-0.823
					c0.419,0.102,2.535,0.845,3.021,5.565c0.497,4.832-0.175,8.184-1.996,9.962C135.199,240.551,133.994,241.016,132.551,241.016z"
					/>
			</g>
			<g>
				<path fill="#FFFFFF" d="M179.611,288.099c-0.543,1.126-0.954,2.289-1.299,3.479c-1.082,3.716-1.51,7.673-3.209,11.429
					c-0.421,0.931-0.934,1.736-1.463,2.414c-0.165,0.212-0.33,0.411-0.496,0.6c-1.25,1.419-2.424,2.127-2.424,2.127
					c-0.006,0.371-0.033,0.843-0.051,1.406c-0.073,2.313-0.047,6.187,1.622,11.018c0.122,0.356,0.249,0.718,0.395,1.082
					c1.119,2.902,0.442,12.298-0.782,14.442c-3.516,6.183-12.328,5.242-14.836,1.021c-2.27-3.83-1.318-11.261-0.891-13.873
					c0.098-0.597,0.168-0.94,0.168-0.94c-2.326-4.868-4.324-11.405-4.324-16.304c0,0-0.627,0.104-1.477,0.115l0.003,0.162
					c-0.334,3.03,0.229,8.205,1.331,12.935c0.121,0.522,0.25,1.042,0.385,1.551c0.65,2.454-0.557,10.215-3.799,14.071
					c-3.759,4.478-11.995,2.913-13.647-0.428c-1.989-4.012,0.61-10.747,1.605-13.043c0.223-0.509,0.364-0.796,0.364-0.796
					c-4.147-9.813-4.39-18.208-3.655-26.689c1.16-13.297,6.449-23.764,11.884-30.972c0.34-0.452,0.698-0.894,1.062-1.328
					c0.462-0.55,0.94-1.086,1.409-1.599c0.833-0.903,1.645-1.739,2.335-2.474l0.947,0.802l1.541,0.357l25.561,5.954l0.223,3
					l0.098,1.345l0.213,2.89l0.539,7.258l0.32,4.343l0.266,3.566L179.611,288.099z"/>
			</g>
			<g opacity="0.35">
				<path fill="#371A45" d="M148.464,334.835c-3.758,4.477-11.995,2.914-13.648-0.429c-1.988-4.011,0.611-10.747,1.608-13.044
					c0.124,0.062,0.188,0.081,0.188,0.081s-3.761,6.958,0.334,10.687c3.229,2.942,8.438,2.011,10.576-1.897
					c2.604-4.768,2.942-13.333,2.942-13.333l1.413,2.313c0.124,0.523,0.25,1.043,0.386,1.553
					C152.914,323.217,151.706,330.977,148.464,334.835z"/>
			</g>
			<g opacity="0.3">
				<path fill="#293856" d="M162.564,324.76l-0.195-0.045C162.459,324.731,162.528,324.747,162.564,324.76z"/>
			</g>
			<g opacity="0.3">
				<path fill="#293856" d="M162.603,324.77l-0.039-0.01C162.589,324.767,162.603,324.77,162.603,324.77z"/>
			</g>
			<g opacity="0.35">
				<path fill="#371A45" d="M171.905,336.096c-3.518,6.185-12.329,5.242-14.837,1.023c-2.271-3.833-1.318-11.262-0.891-13.876
					l6.176,1.468c-0.852-0.162-3.603-0.324-3.771,4.291c-0.113,3.03,0.373,6.405,4.424,6.94c9.952,1.31,9.205-8.753,8.756-14.46
					c-0.087-1.14,0.127-1.335,0.53-0.912c0.12,0.356,0.25,0.718,0.394,1.084C173.805,324.556,173.126,333.952,171.905,336.096z"/>
			</g>
			<g opacity="0.35">
				<path fill="#371A45" d="M154.559,319.545c0,0,2.275,4.66,8.218,5.609c0.578,0.093,0.84-0.693,0.324-0.969
					c-2.311-1.236-5.685-4.36-6.605-8.625c-0.789-3.657-0.459-7.229-0.012-9.672c0.301-1.646-0.907-3.177-2.578-3.253
					c-3.003-0.137-7.358-0.481-10.22-1.351c-1.921-0.583-3.906-1.383-5.598-2.846c-0.688-0.594-1.752-0.149-1.808,0.758
					c-0.055,0.886,0.017,1.796,0.44,2.254c1.609,1.743,9.153,3.915,15.313,5.198c0,0,0.122,2.802,1.019,6.532
					C154.064,317.402,154.559,319.545,154.559,319.545z"/>
			</g>
			<g opacity="0.35">
				<path fill="#371A45" d="M150.546,306.279c0,0-8.909-1.404-13.229-5.575c0,0,0.425,5.339,8.118,9.532
					c3.438,1.874,4.982,4.235,6.021,7.484C151.457,317.72,149.992,310.397,150.546,306.279z"/>
			</g>
			<g>
				<path fill="#371A45" d="M141.88,338.716c-0.489,0-0.987-0.029-1.489-0.09c-3.104-0.373-5.625-1.8-6.577-3.724
					c-2.332-4.711,0.852-12.381,1.752-14.361c-4.257-10.322-4.224-18.96-3.545-26.761c0.95-10.919,3.855-19.664,9.141-27.521
					c0.344-0.512,1.037-0.647,1.549-0.304c0.511,0.345,0.647,1.038,0.303,1.55c-5.066,7.531-7.853,15.942-8.769,26.469
					c-0.664,7.63-0.691,16.08,3.569,26.158l0.198,0.469l-0.225,0.458c-1.153,2.354-3.757,9.249-1.973,12.854
					c0.594,1.199,2.585,2.227,4.842,2.498c2.86,0.345,5.458-0.514,6.952-2.293c3.091-3.681,4.106-11.069,3.578-13.067
					c-1.408-5.317-2.128-11.44-1.752-14.892c0.066-0.612,0.621-1.052,1.23-0.988c0.612,0.067,1.055,0.618,0.988,1.23
					c-0.344,3.157,0.367,9.077,1.69,14.078c0.708,2.676-0.504,10.882-4.025,15.074C147.614,337.582,144.904,338.716,141.88,338.716z
					"/>
			</g>
			<g>
				<path fill="#371A45" d="M146.523,261.315c-0.237,0.613-0.52,1.187-0.807,1.754c-0.293,0.563-0.596,1.114-0.91,1.652
					c-0.315,0.537-0.625,1.075-0.977,1.573c-0.351,0.499-0.716,0.979-1.15,1.402l-0.015,0.014c-0.448,0.438-1.165,0.429-1.602-0.02
					c-0.337-0.345-0.408-0.853-0.218-1.266c0.276-0.599,0.654-1.118,1.06-1.607c0.405-0.489,0.869-0.928,1.334-1.359
					c0.466-0.432,0.953-0.842,1.454-1.237c0.507-0.391,1.023-0.771,1.586-1.111c0.08-0.048,0.184-0.022,0.231,0.057
					C146.539,261.212,146.541,261.268,146.523,261.315z"/>
			</g>
			<g>
				<path fill="#FFFFFF" d="M178.523,262.16"/>
			</g>
			<g>
				<path fill="none" stroke="#293856" stroke-width="30.9179" stroke-linecap="round" stroke-miterlimit="10" d="M178.523,262.16"
					/>
			</g>
			<g>
				<path fill="#FFFFFF" d="M146.709,320.235"/>
			</g>
			<g>
				<path fill="#FFFFFF" d="M177.274,286.281l-0.86,2.394l0.064-1.098C176.693,287.135,176.953,286.699,177.274,286.281z"/>
			</g>
			<g>
				<path fill="#371A45" d="M164.071,341.624c-3.421,0-6.537-1.538-7.962-3.937c-2.692-4.536-1.285-13.296-0.928-15.233
					c-2.611-5.561-4.104-11.302-4.104-15.805c0-0.616,0.5-1.116,1.116-1.116c0.617,0,1.116,0.5,1.116,1.116
					c0,4.271,1.474,9.802,4.043,15.175l0.161,0.337l-0.074,0.367c-0.02,0.097-1.945,9.749,0.59,14.019
					c1.014,1.707,3.436,2.845,6.044,2.845c0.027,0,0.055,0,0.082-0.001c2.933-0.026,5.404-1.429,6.78-3.848
					c1.055-1.851,1.707-10.903,0.709-13.487c-2.348-6.081-2.156-10.912-2.064-13.233c0.01-0.262,0.02-0.494,0.023-0.694l0.013-0.614
					l0.526-0.317c0.021-0.015,2.566-1.6,3.945-4.648c1.082-2.396,1.525-5.31,1.955-8.127c0.527-3.461,1.025-6.73,2.633-9.179
					c0.338-0.515,1.03-0.658,1.546-0.32c0.515,0.339,0.659,1.031,0.319,1.546c-1.34,2.041-1.802,5.076-2.291,8.289
					c-0.452,2.967-0.92,6.035-2.129,8.71c-1.277,2.828-3.343,4.58-4.305,5.285c-0.002,0.052-0.004,0.104-0.006,0.158
					c-0.093,2.338-0.265,6.69,1.917,12.342c1.255,3.249,0.508,13.008-0.851,15.396c-1.781,3.128-4.952,4.941-8.701,4.976
					C164.14,341.623,164.105,341.624,164.071,341.624z"/>
			</g>
			<g>
				<path fill="#FFFFFF" d="M166.252,323.501"/>
			</g>
			<g>
				<path fill="#371A45" d="M152.174,307.222c-0.667-0.098-1.329-0.224-1.988-0.362c-0.656-0.154-1.31-0.32-1.959-0.505
					c-1.295-0.383-2.571-0.836-3.818-1.365c-1.249-0.521-2.474-1.107-3.648-1.786c-0.584-0.346-1.164-0.698-1.713-1.099
					c-0.551-0.397-1.09-0.804-1.574-1.3c-0.052-0.053-0.051-0.137,0.002-0.188c0.044-0.042,0.109-0.049,0.159-0.021l0.01,0.006
					c1.133,0.65,2.366,1.144,3.589,1.599c1.227,0.459,2.477,0.848,3.733,1.208c1.252,0.371,2.528,0.663,3.79,0.999
					c0.635,0.155,1.27,0.309,1.901,0.482c0.637,0.152,1.271,0.317,1.899,0.512l0.026,0.008c0.492,0.152,0.768,0.674,0.615,1.165
					C153.062,307.02,152.621,307.287,152.174,307.222z"/>
			</g>
			<g>
				<path fill="#371A45" d="M129.778,269.092c-2.264,0-6.759-0.896-8.785-7.588c-1.607-5.305,1.886-9.927,4.967-14.005
					c2.074-2.745,4.033-5.338,4.033-7.605c0-0.514,0.417-0.93,0.93-0.93s0.93,0.416,0.93,0.93c0,2.892-2.142,5.726-4.409,8.727
					c-2.952,3.906-6.004,7.946-4.672,12.345c2.237,7.385,7.709,6.246,7.942,6.194c0.5-0.11,0.998,0.2,1.113,0.699
					s-0.193,0.996-0.691,1.113C131.117,268.977,130.591,269.092,129.778,269.092z"/>
			</g>
			<g>
				<path fill="#FFFFFF" d="M138.229,291.242c1.224,0.644,2.606,1.342,4.106,2.056c-0.924-0.36-1.77-0.704-2.521-1.018
					C139.213,292.028,138.677,291.673,138.229,291.242z"/>
			</g>
			<g>
				<path fill="#371A45" d="M162.978,324.904c-0.799,0.148-1.609,0.12-2.416-0.005c-0.805-0.131-1.604-0.375-2.355-0.742
					c-0.75-0.364-1.483-0.817-2.086-1.415c-0.625-0.574-1.126-1.271-1.5-2.02c-0.23-0.459-0.044-1.018,0.416-1.247
					c0.371-0.186,0.807-0.1,1.082,0.183l0.086,0.09c0.247,0.255,0.439,0.542,0.665,0.8c0.114,0.128,0.226,0.257,0.333,0.391
					c0.102,0.139,0.234,0.247,0.345,0.378c0.46,0.504,0.962,0.976,1.519,1.401c0.555,0.429,1.166,0.806,1.823,1.123
					c0.653,0.325,1.358,0.594,2.088,0.798l0.013,0.004c0.071,0.02,0.113,0.094,0.094,0.166
					C163.069,324.859,163.027,324.895,162.978,324.904z"/>
			</g>
			<g>
				<path fill="#371A45" d="M142.601,323.632c-0.792,0.027-1.569-0.11-2.331-0.336c-0.76-0.23-1.499-0.566-2.183-1.007
					c-0.684-0.438-1.339-0.961-1.859-1.604c-0.543-0.625-0.954-1.358-1.233-2.128c-0.176-0.483,0.074-1.019,0.558-1.194
					c0.402-0.146,0.84,0.002,1.077,0.335l0.05,0.07c0.397,0.558,0.715,1.137,1.128,1.661c0.39,0.538,0.819,1.058,1.31,1.537
					c0.972,0.966,2.177,1.775,3.525,2.403l0.012,0.006c0.067,0.031,0.097,0.111,0.065,0.179
					C142.696,323.602,142.65,323.63,142.601,323.632z"/>
			</g>
			<g>
				<path fill="#FFFFFF" d="M189.302,319.41c-2.076,0.6-11.061,2.414-10.814-6.038c0.051-1.783,0.631-4.659,0.59-4.662
					c-0.04-0.003-4.77,2.438-6.108-0.135c-0.485-0.934-0.337-1.794,0.175-2.556c0.139-0.205,0.308-0.408,0.496-0.6
					c1.629-1.659,4.881-2.734,6.264-2.913c0,0-0.01-0.114-0.03-0.327c-0.121-1.305-0.627-6.287-1.562-10.603
					c-0.505-2.329-1.135-4.467-1.897-5.725l0.661-4.646l0.307-2.171l1.021-7.184l0.516-3.617c0.118,0,8.03,0.033,11.074,9.115
					c0.008,0.017,0.01,0.034,0.018,0.051c1.82,5.485,2.181,15.612,1.311,29.384C191.076,310.679,193.693,318.136,189.302,319.41z"/>
			</g>
			<g opacity="0.35">
				<path fill="#371A45" d="M181.074,303.559c-0.367,0.26-0.782-0.374-1.2-1.379c-0.121-1.305-0.627-6.287-1.562-10.603
					c-1.082,3.715-1.51,7.673-3.209,11.429c-0.421,0.931-0.934,1.736-1.463,2.414c-0.165,0.212-0.33,0.411-0.496,0.6
					c-1.25,1.419-2.424,2.127-2.424,2.127c-0.006,0.371-0.033,0.843-0.051,1.406l-1.283-0.148c0,0-0.105-2.459,0.222-5.335
					c0.171-1.507-0.854-2.876-2.348-3.142c-2.513-0.445-5.652-1.395-9.388-3.248c0,0-1.891-4.717,2.02-6.079
					c0,0,6.764,4.353,12.834,3.456c1.133-2.579,2.111-6.071,1.548-11.311c-0.411-3.819,0.836-3.891,2.188-3.011
					c0.223,0.148,0.428,0.304,0.613,0.472c1.301,1.157,1.77,2.806,2.222,4.842c0.063,0.293,0.146,0.616,0.232,0.971
					c0.718,2.858,2.131,7.568,2.744,12.78C182.827,304.503,181.074,303.559,181.074,303.559z"/>
			</g>
			<g>
				<path fill="#371A45" d="M176.742,285.656c0.25,0.282,0.516,0.582,0.727,0.9c0.203,0.316,0.402,0.646,0.581,0.978
					c0.167,0.334,0.317,0.675,0.478,1.015c0.14,0.343,0.266,0.688,0.393,1.036c0.129,0.348,0.227,0.697,0.33,1.049
					c0.105,0.352,0.199,0.705,0.279,1.059l0.254,1.061l0.215,1.066c0.27,1.422,0.475,2.852,0.633,4.283
					c0.156,1.435,0.307,2.854,0.428,4.307l0.092,1.112l-1.096,0.134c-0.383,0.047-0.838,0.157-1.273,0.289
					c-0.438,0.131-0.877,0.285-1.305,0.459c-0.854,0.347-1.68,0.769-2.369,1.274c-0.695,0.494-1.209,1.131-1.27,1.6
					c-0.029,0.233,0.004,0.465,0.145,0.749c0.123,0.234,0.25,0.347,0.479,0.452c0.233,0.096,0.58,0.142,0.967,0.121
					c0.389-0.022,0.809-0.098,1.232-0.212c0.424-0.112,0.854-0.261,1.275-0.433l0.315-0.133l0.339-0.152
					c-0.068,0.033,0.104-0.071,0.407-0.104c0.073-0.577,2.004,1.803,1.234,1.188c-0.005,0.123-0.009,0.123-0.013,0.159l-0.018,0.125
					l-0.031,0.199l-0.062,0.372c-0.162,0.973-0.313,1.937-0.407,2.878c-0.048,0.475-0.072,0.916-0.061,1.36
					c0.002,0.445,0.045,0.878,0.117,1.294c0.141,0.837,0.471,1.567,0.956,2.141c0.493,0.566,1.169,0.981,1.968,1.225
					c1.604,0.494,3.526,0.397,5.334,0.035c0.226-0.048,0.452-0.098,0.671-0.155c0.108-0.027,0.224-0.059,0.316-0.088l0.243-0.084
					c0.307-0.13,0.547-0.305,0.746-0.543c0.402-0.473,0.622-1.274,0.691-2.149c0.078-0.876,0.029-1.823-0.051-2.78
					c-0.086-0.962-0.209-1.94-0.316-2.947c-0.102-1.005-0.206-2.054-0.137-3.172l0.168-2.968c0.102-1.979,0.184-3.957,0.229-5.934
					c0.044-1.977,0.064-3.953,0.027-5.924c-0.034-1.971-0.105-3.938-0.269-5.89c-0.341-3.883-0.861-7.822-2.698-11.004
					c-0.256-0.377-0.492-0.768-0.758-1.137c-0.297-0.34-0.567-0.707-0.893-1.018c-0.339-0.296-0.642-0.632-1.016-0.881l-0.53-0.408
					c-0.19-0.116-0.374-0.243-0.561-0.364l-0.277-0.188l-0.291-0.166c-0.196-0.105-0.383-0.232-0.581-0.339
					c-0.199-0.104-0.402-0.199-0.601-0.311c-0.2-0.105-0.409-0.193-0.614-0.298c-0.822-0.392-1.697-0.779-2.594-1.176l-0.042-0.019
					c-0.202-0.089-0.294-0.326-0.204-0.528c0.047-0.108,0.139-0.186,0.242-0.22c0.559-0.181,1.087-0.23,1.636-0.24
					c0.544-0.007,1.087,0.052,1.618,0.164c1.068,0.217,2.088,0.661,3.023,1.232c0.229,0.15,0.463,0.296,0.688,0.452l0.635,0.524
					c0.435,0.337,0.788,0.761,1.173,1.146c0.199,0.188,0.352,0.415,0.524,0.624l0.511,0.635c0.309,0.442,0.598,0.898,0.894,1.35
					c0.257,0.47,0.493,0.95,0.738,1.427c0.224,0.483,0.396,0.986,0.593,1.479l0.143,0.372l0.116,0.377l0.226,0.757
					c0.123,0.504,0.259,1.009,0.361,1.515c0.423,2.021,0.664,4.041,0.831,6.057c0.169,2.017,0.241,4.028,0.276,6.037
					c0.037,2.01,0.017,4.015-0.028,6.017c-0.045,2.003-0.128,4.002-0.229,5.999l-0.171,2.993c-0.056,0.87,0.028,1.813,0.129,2.785
					c0.104,0.973,0.229,1.969,0.319,2.989c0.085,1.024,0.147,2.073,0.053,3.182c-0.049,0.554-0.137,1.123-0.314,1.705
					c-0.18,0.579-0.458,1.181-0.896,1.71c-0.435,0.53-1.027,0.951-1.641,1.202l-0.461,0.162c-0.145,0.045-0.27,0.077-0.402,0.111
					c-0.263,0.069-0.523,0.126-0.783,0.181c-1.043,0.214-2.101,0.337-3.184,0.351c-1.082,0.005-2.195-0.094-3.303-0.444
					c-1.102-0.332-2.205-0.972-3.018-1.913c-0.809-0.941-1.289-2.108-1.479-3.23c-0.101-0.563-0.152-1.125-0.156-1.674
					c-0.014-0.551,0.02-1.104,0.072-1.62c0.104-1.039,0.262-2.043,0.427-3.032l0.061-0.364l0.026-0.17l0.01-0.06l-0.004,0.066
					c-0.771-0.623,1.166,1.72,1.221,1.157c0.287-0.027,0.445-0.126,0.364-0.086l-0.343,0.154l-0.371,0.157
					c-0.5,0.202-1.014,0.381-1.551,0.524c-0.537,0.143-1.1,0.251-1.705,0.285c-0.605,0.028-1.273-0.014-1.966-0.292
					c-0.344-0.144-0.682-0.355-0.972-0.623c-0.294-0.267-0.513-0.597-0.682-0.919c-0.312-0.601-0.483-1.39-0.362-2.143
					c0.12-0.754,0.481-1.38,0.873-1.873c0.399-0.499,0.848-0.882,1.304-1.221c0.918-0.67,1.884-1.151,2.871-1.556
					c0.494-0.199,0.996-0.377,1.51-0.53c0.52-0.151,1.03-0.288,1.634-0.379l-1.004,1.246c-0.138-1.388-0.313-2.8-0.522-4.191
					l-0.654-4.17l-0.342-2.071l-0.359-2.056c-0.233-1.374-0.451-2.724-0.789-4.065l-0.012-0.045
					c-0.053-0.208,0.074-0.419,0.282-0.471C176.501,285.501,176.648,285.552,176.742,285.656z"/>
			</g>
			<g opacity="0.35">
				<path fill="#371A45" d="M189.3,319.412c-2.072,0.602-11.061,2.413-10.813-6.038c0.022-0.763,0.098-1.601,0.191-2.364
					c1.695,5.073,9.102,5.364,10.475,4.104c1.824-1.676,1.74-5.49,1.974-7.075C191.543,311.683,192.412,318.51,189.3,319.412z"/>
			</g>
			<g opacity="0.35">
				<path fill="#371A45" d="M136.026,283.642c1.923-3.719,3.267-7.315,4.197-10.607c-0.712,1.842-1.554,3.743-2.556,5.679
					c-1.173,2.271-2.131,4.734-2.739,7.264C135.265,285.182,135.634,284.401,136.026,283.642z"/>
			</g>
			<g>
				<ellipse fill="#FFFFFF" cx="136.32" cy="281.758" rx="3.647" ry="3.647"/>
			</g>
			<g opacity="0.35">
				<path fill="#371A45" d="M132.856,280.618c-0.63,1.913,0.408,3.976,2.321,4.605c1.913,0.631,3.977-0.41,4.606-2.323
					c0.174-0.528,0.222-1.07,0.155-1.59c-0.941,0.986-2.403,1.404-3.785,0.949s-2.309-1.66-2.476-3.013
					C133.315,279.625,133.031,280.09,132.856,280.618z"/>
			</g>
			<g>
				<path fill="#371A45" d="M136.316,286.557c-0.497,0-1.001-0.077-1.498-0.241c-1.217-0.4-2.205-1.252-2.782-2.396
					c-0.577-1.145-0.674-2.444-0.273-3.661l0,0c0.401-1.218,1.252-2.205,2.396-2.782c1.145-0.577,2.445-0.673,3.662-0.272
					c2.512,0.827,3.882,3.545,3.055,6.057C140.211,285.277,138.331,286.557,136.316,286.557z M136.316,279.262
					c-0.385,0-0.768,0.091-1.121,0.27c-0.595,0.3-1.039,0.814-1.247,1.447l0,0c-0.208,0.633-0.158,1.31,0.142,1.905
					s0.814,1.038,1.447,1.247c1.308,0.431,2.722-0.282,3.153-1.59c0.431-1.308-0.283-2.722-1.59-3.152
					C136.844,279.305,136.58,279.262,136.316,279.262z M132.856,280.618h0.003H132.856z"/>
			</g>
			<g>
				<path fill="#FFFFFF" d="M137.099,291.541l17.918,7.11c2.121,0.842,4.547-0.204,5.39-2.328l3.783-9.536
					c0.737-1.858,0.026-3.948-1.588-5.005c-0.228-0.151-0.476-0.278-0.739-0.384l-17.917-7.109
					c-2.124-0.843-4.549,0.204-5.389,2.328l-2.998,7.552l-0.788,1.983C133.928,288.276,134.978,290.699,137.099,291.541z"/>
			</g>
			<g opacity="0.35">
				<path fill="#371A45" d="M137.099,291.541l17.918,7.11c2.121,0.842,4.547-0.204,5.39-2.328l3.783-9.536
					c0.737-1.858,0.026-3.948-1.588-5.005c-1.286,0.272-2.104,0.448-2.104,0.448c-3.909,7.308-7.604,10.26-17.17,6.644
					c-4.129-1.562-6.47-3.215-7.77-4.705l-0.788,1.983C133.928,288.276,134.978,290.699,137.099,291.541z"/>
			</g>
			<g>
				<path fill="#371A45" d="M156.539,299.875c-0.631,0-1.262-0.119-1.865-0.358l-17.917-7.11c-2.604-1.033-3.882-3.992-2.849-6.597
					l3.784-9.537c1.033-2.604,3.993-3.882,6.597-2.849l17.917,7.109c1.257,0.499,2.247,1.462,2.786,2.711s0.563,2.629,0.063,3.887
					l-3.784,9.536c-0.499,1.258-1.462,2.247-2.71,2.786C157.91,299.735,157.224,299.875,156.539,299.875z M155.359,297.787
					c0.796,0.315,1.671,0.301,2.463-0.041c0.793-0.343,1.404-0.97,1.719-1.765l3.785-9.537c0.315-0.796,0.301-1.67-0.041-2.463
					c-0.344-0.793-0.97-1.403-1.766-1.719l-17.917-7.11c-1.651-0.654-3.527,0.155-4.182,1.807l-3.784,9.536
					c-0.655,1.651,0.155,3.527,1.806,4.183L155.359,297.787z"/>
			</g>
			<g>
				<path fill="#FFFFFF" d="M136.407,291.186c0.213,0.141,0.442,0.259,0.691,0.355l17.918,7.11c1.555,0.616,3.271,0.221,4.41-0.875
					c0.415-0.397,0.754-0.887,0.977-1.454l1.684-4.235l0.555-1.397l1.548-3.902c0.843-2.123-0.207-4.547-2.327-5.389l-3.873-1.535
					c1.651,1.044,2.387,3.156,1.643,5.035l-2.043,5.151l-1.741,4.387c-0.843,2.121-3.269,3.17-5.39,2.328L136.407,291.186z"/>
			</g>
			<g opacity="0.35">
				<path fill="#371A45" d="M136.407,291.186c0.213,0.141,0.442,0.259,0.691,0.355l17.918,7.11c2.121,0.842,4.547-0.205,5.387-2.329
					l2.238-5.633c-0.846,0.816-2.141,1.717-3.486,1.331c-0.74-0.21-1.236-0.999-1.566-1.971l-1.741,4.387
					c-0.843,2.121-3.269,3.17-5.39,2.328L136.407,291.186z"/>
			</g>
			<g>
				<path fill="#371A45" d="M156.539,299.875c-0.631,0-1.262-0.119-1.865-0.358l-17.918-7.111c-0.296-0.115-0.585-0.264-0.855-0.439
					l0.849-1.645l14.053,5.578c0.795,0.315,1.668,0.301,2.461-0.041c0.793-0.343,1.404-0.97,1.719-1.765l3.785-9.537
					c0.569-1.437,0.034-3.08-1.273-3.909l0.841-1.65l3.87,1.535c2.605,1.036,3.883,3.995,2.85,6.599l-3.785,9.536
					c-0.498,1.257-1.46,2.247-2.709,2.787C157.91,299.735,157.224,299.875,156.539,299.875z M154.365,297.393l0.996,0.395
					c0.795,0.316,1.668,0.301,2.461-0.041c0.793-0.343,1.403-0.97,1.719-1.765v-0.001l3.784-9.536
					c0.315-0.796,0.302-1.67-0.041-2.463s-0.97-1.403-1.765-1.72l-0.881-0.35c0.32,1.065,0.292,2.236-0.143,3.33l-3.783,9.537
					C156.263,295.911,155.437,296.827,154.365,297.393z"/>
			</g>
			<g>
				<path fill="#22A7F0" d="M150.644,286.942c-0.139,0.354-0.754,3.4-0.754,3.4s0.903,0.353,2.014,0.785
					c1.386,0.541,3.07-0.456,3.761-2.227c0.691-1.771,0.128-3.646-1.259-4.187c-0.936-0.364-2.014-0.785-2.014-0.785
					S150.869,286.365,150.644,286.942z"/>
			</g>
			<g opacity="0.35">
				<path fill="#371A45" d="M150.644,286.942c-0.139,0.354-0.754,3.4-0.754,3.4s0.903,0.353,2.014,0.785
					c1.386,0.541,3.07-0.456,3.761-2.227c0.691-1.771,0.128-3.646-1.259-4.187c-0.936-0.364-2.014-0.785-2.014-0.785
					S150.869,286.365,150.644,286.942z"/>
			</g>
			<g>
				<g>
					<path fill="#371A45" d="M152.31,291.459c-0.332,0-0.663-0.06-0.982-0.184l-1.398-0.546c-0.611-0.238-0.958-0.878-0.826-1.52
						c0.52-2.515,0.613-2.754,0.648-2.844c0.132-0.337,0.619-1.192,1.447-2.544c0.341-0.554,1.026-0.784,1.631-0.549l1.406,0.549
						c1.671,0.652,2.379,2.854,1.576,4.909C155.164,290.395,153.722,291.459,152.31,291.459z M150.792,286.772
						c-0.018,0.048-0.127,0.398-0.596,2.664c-0.022,0.107,0.036,0.215,0.139,0.254l1.398,0.546c1.099,0.429,2.461-0.429,3.039-1.91
						c0.578-1.48,0.155-3.035-0.942-3.463l-1.406-0.549c-0.101-0.04-0.217-0.001-0.273,0.092
						C151.402,285.627,150.894,286.511,150.792,286.772z M150.271,286.57h0.004H150.271z"/>
				</g>
				<g>
					
						<ellipse transform="matrix(-0.9316 -0.3635 0.3635 -0.9316 186.9979 608.7234)" fill="#22A7F0" cx="150.771" cy="286.768" rx="2.695" ry="3.441"/>
				</g>
				<g opacity="0.35">
					<path fill="#371A45" d="M153.158,284.565c-0.047,0.313-0.128,0.631-0.25,0.946c-0.691,1.771-2.376,2.768-3.762,2.227
						c-0.489-0.19-0.872-0.549-1.138-1.008c-0.212,1.449,0.37,2.796,1.509,3.24c1.387,0.541,3.07-0.456,3.762-2.227
						C153.726,286.596,153.645,285.407,153.158,284.565z"/>
				</g>
				<g opacity="0.6">
					<path fill="#FFFFFF" d="M148.63,286.9c0.691-1.771,2.375-2.768,3.762-2.227c0.492,0.192,0.877,0.554,1.143,1.018
						c-0.14-0.987-0.675-1.806-1.516-2.134c-1.387-0.541-3.07,0.456-3.761,2.228c-0.446,1.142-0.367,2.325,0.116,3.168
						C148.283,288.311,148.358,287.598,148.63,286.9z"/>
				</g>
				<g>
					<path fill="#371A45" d="M150.296,290.673c-0.332,0-0.663-0.059-0.982-0.184c-1.671-0.651-2.378-2.854-1.577-4.908l0,0
						c0.802-2.055,2.813-3.196,4.484-2.544c1.672,0.651,2.379,2.854,1.577,4.908C153.15,289.609,151.708,290.673,150.296,290.673z
						 M148.778,285.987c-0.578,1.481-0.155,3.035,0.942,3.464s2.461-0.429,3.039-1.91s0.155-3.035-0.942-3.464
						C150.72,283.649,149.356,284.505,148.778,285.987L148.778,285.987z"/>
				</g>
			</g>
			<g>
				<path fill="#371A45" d="M142.696,294.614c-0.107,0-0.216-0.019-0.322-0.059c-0.482-0.178-0.728-0.713-0.55-1.194l2.265-6.128
					c0.019-0.05,0.011-0.104-0.021-0.147l-1.604-2.192c-0.411-0.562-0.504-1.283-0.25-1.931l3.177-8.089
					c0.188-0.479,0.728-0.713,1.206-0.525s0.713,0.728,0.525,1.205l-3.177,8.09c-0.021,0.051-0.013,0.107,0.019,0.151l1.604,2.192
					c0.401,0.548,0.5,1.255,0.265,1.892l-2.266,6.127C143.43,294.381,143.074,294.614,142.696,294.614z"/>
			</g>
			<g>
				<path fill="#FFFFFF" d="M177.617,290.748c0,0,1.247,1.774,0.748,3.879c-0.578,2.434-2.281,3.037-2.281,3.037
					s-7.208,1.741-16.676-3.136c0,0-1.891-4.716,2.023-6.077C161.431,288.451,171.652,292.763,177.617,290.748z"/>
			</g>
			<g opacity="0.35">
				<path fill="#371A45" d="M178.363,294.628c-0.576,2.431-2.278,3.034-2.278,3.034s-7.208,1.743-16.678-3.135
					c0,0-0.62-1.555-0.411-3.132c0.027,0.088,0.047,0.135,0.047,0.135c6.92,3.565,12.634,3.594,15.206,3.351
					c1.787-0.169,3.298-1.436,3.733-3.177c0.006-0.024,0.012-0.049,0.018-0.073c0.01-0.04,0.02-0.08,0.023-0.121
					C178.333,292.225,178.664,293.367,178.363,294.628z"/>
			</g>
			<g>
				<path fill="#371A45" d="M172.669,299.122c-3.15,0-8.07-0.626-13.789-3.571l-0.381-0.196l-0.16-0.398
					c-0.115-0.29-1.106-2.901-0.082-5.15c0.52-1.142,1.486-1.985,2.796-2.441l0.417-0.146l0.408,0.172
					c0.098,0.041,9.893,4.119,15.369,2.268l0.815-0.275l0.495,0.704c0.063,0.09,1.537,2.227,0.926,4.806
					c-0.57,2.402-2.164,3.554-3.016,3.855l-0.114,0.034C176.226,298.814,174.884,299.122,172.669,299.122z M160.35,293.717
					c8.218,4.088,14.618,2.998,15.39,2.845c0.203-0.101,1.134-0.635,1.506-2.2c0.207-0.875,0.002-1.699-0.219-2.254
					c-5.633,1.289-13.605-1.63-15.594-2.415c-0.515,0.25-0.87,0.602-1.082,1.066C159.892,291.769,160.166,293.078,160.35,293.717z"
					/>
			</g>
			<g>
				<path fill="#371A45" d="M143.686,318.783c-5.343,0-9.261-3.024-9.318-3.069c-0.323-0.254-0.378-0.722-0.123-1.045
					c0.254-0.322,0.722-0.378,1.045-0.123c0.314,0.247,7.499,5.741,15.487,0.574c0.345-0.224,0.805-0.125,1.028,0.221
					c0.224,0.345,0.124,0.806-0.221,1.028C148.812,318.163,146.102,318.783,143.686,318.783z"/>
			</g>
			<g>
				<path fill="#371A45" d="M163.054,318.593c-5.539,0-9.855-2.801-9.918-2.843c-0.343-0.227-0.437-0.688-0.209-1.031
					c0.227-0.342,0.688-0.436,1.03-0.209l0,0c0.085,0.057,8.614,5.563,16.651,0.364c0.345-0.224,0.806-0.124,1.029,0.221
					c0.223,0.346,0.124,0.806-0.221,1.029C168.57,317.966,165.675,318.593,163.054,318.593z"/>
			</g>
			<g>
				<path fill="#371A45" d="M179.314,298.135c-0.307,0-0.594-0.19-0.702-0.496c-0.138-0.387,0.065-0.812,0.452-0.949
					c0.363-0.129,8.91-3.106,13.123,0.109c0.326,0.25,0.389,0.717,0.14,1.043c-0.249,0.327-0.716,0.39-1.043,0.141
					c-3.573-2.729-11.642,0.081-11.722,0.109C179.48,298.121,179.396,298.135,179.314,298.135z"/>
			</g>
			<g>
				<path fill="#371A45" d="M134.681,248.309c-0.263,0-0.53-0.006-0.805-0.019c-0.41-0.019-0.729-0.366-0.71-0.777
					c0.019-0.41,0.364-0.728,0.777-0.709c9.987,0.45,11.646-8.294,11.711-8.666c0.071-0.404,0.457-0.676,0.861-0.604
					c0.404,0.07,0.675,0.454,0.606,0.858C147.104,238.493,145.286,248.309,134.681,248.309z"/>
			</g>
			<g>
				<g opacity="0.35">
					<path fill="#371A45" d="M189.994,277.351c-2.218,0.877-4.564,1.439-6.975,1.642c-1.285,0.108-2.646,0.159-4.076,0.118
						c-0.512-0.014-1.031-0.037-1.561-0.074c-4.548-0.32-9.676-1.547-15.016-4.426c-7.572-4.09-12.137-9.646-14.88-14.632
						c0.833-0.903,1.645-1.739,2.336-2.474l0.947,0.802l1.54,0.357l25.561,5.954l0.223,3l0.098,1.345l0.213,2.89l0.516-3.617
						C179.038,268.236,186.95,268.269,189.994,277.351z"/>
				</g>
				<g>
					<g>
						<path fill="#FFFFFF" d="M207.755,263.323L207.755,263.323c-0.351-0.171-0.496-0.594-0.326-0.945l8.904-18.308
							c0.171-0.351,0.594-0.497,0.945-0.326l0,0c3.683,1.791,5.216,6.229,3.425,9.911l-3.036,6.243
							C215.876,263.58,211.439,265.114,207.755,263.323z"/>
						<path fill="#371A45" d="M210.994,264.238c-1.134,0-2.261-0.258-3.31-0.768l0,0c-0.209-0.102-0.366-0.279-0.442-0.499
							s-0.062-0.456,0.04-0.665l8.904-18.308c0.103-0.21,0.279-0.366,0.499-0.442s0.456-0.063,0.666,0.04
							c1.82,0.885,3.187,2.427,3.848,4.34c0.662,1.913,0.538,3.97-0.348,5.79l-3.036,6.243c-0.886,1.821-2.427,3.188-4.341,3.849
							C212.664,264.098,211.827,264.238,210.994,264.238z M207.828,263.175c1.742,0.847,3.709,0.965,5.539,0.332
							c1.831-0.632,3.306-1.939,4.152-3.682l3.037-6.243c1.748-3.595,0.246-7.942-3.35-9.691c-0.13-0.063-0.277-0.072-0.414-0.024
							c-0.137,0.047-0.248,0.145-0.311,0.275l-8.904,18.308c-0.064,0.13-0.072,0.277-0.025,0.414
							C207.599,263.001,207.697,263.112,207.828,263.175L207.828,263.175L207.828,263.175z"/>
					</g>
					<g opacity="0.35">
						<path fill="#371A45" d="M219.091,256.97l-1.424,2.929c-1.791,3.681-6.229,5.215-9.912,3.425
							c-0.352-0.17-0.496-0.595-0.326-0.946l2.365-4.867c-0.01,0.27,0.139,0.53,0.395,0.658l0.436,0.21
							C213.535,259.794,216.917,259.133,219.091,256.97z"/>
					</g>
					<g>
						<path fill="#371A45" d="M210.992,265.19c-1.275,0-2.543-0.289-3.725-0.863l0,0c-0.438-0.214-0.766-0.584-0.925-1.044
							c-0.159-0.461-0.13-0.955,0.083-1.393l8.904-18.308c0.213-0.438,0.584-0.768,1.045-0.926c0.46-0.16,0.955-0.13,1.393,0.083
							c4.23,2.058,5.998,7.173,3.939,11.403l-3.035,6.243c-0.997,2.049-2.732,3.587-4.886,4.332
							C212.873,265.033,211.93,265.19,210.992,265.19z M208.618,262.486c1.417,0.582,2.979,0.627,4.438,0.122
							c1.59-0.55,2.871-1.686,3.607-3.198l3.036-6.243c1.459-2.999,0.313-6.602-2.547-8.229L208.618,262.486z M208.244,262.319
							c0.001,0,0.002,0,0.002,0.001C208.246,262.319,208.245,262.319,208.244,262.319L208.244,262.319z"/>
					</g>
					<g>
						<path fill="#FFFFFF" d="M156.849,214.352L156.849,214.352c0.351,0.171,0.496,0.594,0.326,0.944l-8.905,18.309
							c-0.171,0.351-0.594,0.497-0.945,0.326l0,0c-3.683-1.791-5.216-6.229-3.425-9.911l3.037-6.243
							C148.729,214.094,153.166,212.561,156.849,214.352z"/>
						<path fill="#371A45" d="M147.634,234.167c-0.13,0-0.26-0.03-0.38-0.089c-1.82-0.886-3.187-2.427-3.849-4.34
							c-0.661-1.914-0.538-3.97,0.348-5.791l3.037-6.242c0.885-1.821,2.427-3.188,4.34-3.849c1.912-0.662,3.969-0.538,5.79,0.348
							l0,0c0.433,0.21,0.612,0.732,0.402,1.164l-8.904,18.308c-0.102,0.209-0.279,0.366-0.499,0.442
							C147.826,234.151,147.73,234.167,147.634,234.167z M153.617,213.77c-2.689,0-5.278,1.502-6.531,4.078l-3.037,6.243
							c-0.847,1.742-0.965,3.709-0.333,5.54c0.632,1.83,1.94,3.305,3.682,4.152c0.13,0.063,0.277,0.071,0.415,0.024
							c0.137-0.047,0.247-0.146,0.311-0.275l8.904-18.308c0.131-0.27,0.02-0.595-0.25-0.726
							C155.759,214.004,154.679,213.77,153.617,213.77z"/>
					</g>
					<g opacity="0.35">
						<path fill="#371A45" d="M150.742,228.527l-2.47,5.078c-0.17,0.352-0.595,0.496-0.946,0.326
							c-1.933-0.941-3.275-2.611-3.854-4.519c-0.522-1.724-0.42-3.643,0.43-5.392l1.279-2.63c-0.077,2.816,1.47,5.557,4.169,6.87
							l0.669,0.325C150.263,228.704,150.536,228.67,150.742,228.527z"/>
					</g>
					<g>
						<path fill="#371A45" d="M147.634,235.119c-0.273,0-0.544-0.063-0.796-0.185c-2.049-0.997-3.588-2.731-4.332-4.886
							c-0.744-2.153-0.605-4.469,0.392-6.518l3.037-6.243c2.057-4.23,7.173-5.997,11.403-3.94l0,0
							c0.903,0.44,1.281,1.533,0.842,2.437l-8.905,18.309c-0.213,0.438-0.584,0.767-1.044,0.925
							C148.035,235.085,147.834,235.119,147.634,235.119z M153.616,214.722c-2.337,0-4.585,1.305-5.674,3.543l-3.037,6.243
							c-0.736,1.513-0.838,3.222-0.289,4.812c0.505,1.461,1.504,2.66,2.836,3.417l8.535-17.549
							C155.214,214.872,154.41,214.722,153.616,214.722z"/>
					</g>
					<g>
						<circle fill="#FFFFFF" cx="182.306" cy="238.839" r="34.692"/>
						<path fill="#371A45" d="M182.25,273.71c-6.041,0-12.003-1.584-17.374-4.686c-8.063-4.656-13.83-12.173-16.239-21.167
							c-2.409-8.993-1.171-18.387,3.484-26.449c4.656-8.063,12.173-13.83,21.166-16.239c8.994-2.409,18.387-1.172,26.45,3.484
							c8.063,4.655,13.83,12.173,16.239,21.166c2.408,8.994,1.172,18.387-3.484,26.45l-0.143-0.082l0.143,0.082
							c-4.656,8.063-12.174,13.83-21.166,16.239C188.323,273.313,185.277,273.71,182.25,273.71z M182.363,204.296
							c-2.999,0-6.017,0.394-8.99,1.19c-8.909,2.386-16.355,8.099-20.967,16.086c-9.521,16.487-3.854,37.646,12.634,47.168
							c7.987,4.611,17.292,5.837,26.2,3.451c8.909-2.387,16.355-8.1,20.967-16.086c4.613-7.987,5.838-17.292,3.452-26.201
							c-2.387-8.908-8.1-16.354-16.086-20.967C194.252,205.865,188.345,204.296,182.363,204.296z"/>
					</g>
					<g opacity="0.35">
						<path fill="#371A45" d="M214.462,251.863c-0.593,1.469-1.297,2.913-2.113,4.325c-9.583,16.591-30.8,22.274-47.393,12.695
							c-16.591-9.583-22.274-30.801-12.695-47.394c0.275-0.478,0.563-0.948,0.857-1.405c-6.42,15.794-0.373,34.301,14.808,43.067
							C184.042,272.456,204.516,267.363,214.462,251.863z"/>
					</g>
					<g>
						<path fill="#371A45" d="M182.248,274.663c-6.205,0-12.33-1.628-17.848-4.814c-17.099-9.874-22.978-31.817-13.104-48.917
							c4.783-8.283,12.506-14.207,21.744-16.683c9.239-2.475,18.889-1.203,27.172,3.58s14.208,12.505,16.684,21.744
							c2.475,9.239,1.203,18.89-3.58,27.172l0,0c-4.783,8.283-12.506,14.208-21.744,16.683
							C188.488,274.254,185.357,274.663,182.248,274.663z M182.361,205.248c-2.916,0-5.85,0.383-8.742,1.158
							c-8.664,2.32-15.904,7.875-20.389,15.642c-4.485,7.768-5.677,16.815-3.357,25.479c2.321,8.663,7.877,15.904,15.643,20.389
							c7.768,4.485,16.814,5.677,25.479,3.356c8.663-2.32,15.904-7.876,20.389-15.643l0,0c4.485-7.767,5.678-16.814,3.357-25.478
							c-2.321-8.663-7.877-15.904-15.643-20.39C193.923,206.775,188.179,205.248,182.361,205.248z"/>
					</g>
					<g>
						<path fill="#371A45" d="M211.808,256.904c-3.307,5.93-8.3,10.361-14.131,13.081c-4.372,2.039-17.849,2.359-30.439-4.512
							c-11.674-6.371-18.79-18.456-19.354-23.247c-0.752-6.39,0.392-12.968,3.697-18.897c8.748-15.691,25.856-14.681,42.487-5.409
							C210.701,227.192,220.556,241.212,211.808,256.904z"/>
					</g>
					<g>
						<path fill="#371A45" d="M189.381,272.185c-6.169,0-14.421-1.456-22.581-5.909c-12.101-6.604-19.232-18.909-19.825-23.942
							c-0.803-6.817,0.513-13.543,3.806-19.45c4.294-7.701,10.692-11.918,19.019-12.532c7.262-0.535,15.807,1.805,24.713,6.771
							c8.906,4.965,15.391,11.002,18.753,17.461c3.855,7.405,3.634,15.065-0.66,22.767l0,0c-3.293,5.907-8.321,10.563-14.542,13.465
							C196.386,271.596,193.304,272.185,189.381,272.185z M171.755,212.092c-7.225,0-14.443,2.832-19.376,11.682
							c-3.105,5.569-4.345,11.913-3.588,18.345c0.538,4.567,7.498,16.337,18.884,22.552c12.62,6.888,25.719,6.304,29.615,4.486
							c5.87-2.738,10.613-7.129,13.719-12.698l0,0c3.975-7.13,4.188-14.206,0.635-21.032c-3.196-6.14-9.428-11.918-18.021-16.708
							C188.847,216.056,180.297,212.092,171.755,212.092z"/>
					</g>
					<g opacity="0.6">
						
							<ellipse transform="matrix(-0.7726 -0.6349 0.6349 -0.7726 201.8994 570.9781)" fill="#FFFFFF" cx="203.212" cy="249.329" rx="4.449" ry="6.14"/>
					</g>
					<g opacity="0.6">
						
							<ellipse transform="matrix(-0.6775 -0.7355 0.7355 -0.6775 133.7406 573.194)" fill="#FFFFFF" cx="192.523" cy="257.279" rx="2.419" ry="2.817"/>
					</g>
					<g opacity="0.35">
						<path fill="#111A28" d="M214.112,239c1.723,5.564,1.208,11.6-2.304,17.902c-3.307,5.931-8.301,10.362-14.131,13.083
							c-4.372,2.038-17.85,2.358-30.44-4.512c-4.446-2.426-8.229-5.68-11.242-9.047c15.657,8.115,32.104,7.67,37.526,5.141
							c7.401-3.451,13.739-9.077,17.934-16.603C212.576,242.955,213.454,240.964,214.112,239z"/>
					</g>
					<g>
						<path fill="#371A45" d="M216.889,242.63c-0.366,0-0.712-0.219-0.858-0.573l-0.053-0.119l-0.016-0.141
							c-1.113-9.988-8.679-19.579-20.758-26.313c-12.146-6.771-24.348-8.025-33.473-3.442l-0.08,0.036
							c-0.463,0.184-0.993-0.031-1.195-0.492c-0.203-0.465,0.004-1.006,0.463-1.218c9.682-4.851,22.507-3.579,35.19,3.492
							c12.59,7.019,20.494,17.104,21.695,27.678c0.077,0.433-0.163,0.873-0.589,1.032
							C217.109,242.611,216.998,242.63,216.889,242.63z"/>
					</g>
					<g opacity="0.6">
						<path fill="#FFFFFF" d="M153.14,236.433c0,0,3.77-18.188,15.551-19.707c11.781-1.518,23.77,5.198,23.061,5.812
							c0,0-15.082-4.19-26.137,3.416C157.089,231.819,153.14,236.433,153.14,236.433z"/>
					</g>
				</g>
			</g>
		</g>
	</g>
</g>
</svg>
