<?xml version="1.0" encoding="utf-8"?>
<!-- Generator: Adobe Illustrator 27.5.0, SVG Export Plug-In . SVG Version: 6.00 Build 0)  -->
<svg version="1.1" xmlns="http://www.w3.org/2000/svg" xmlns:xlink="http://www.w3.org/1999/xlink" x="0px" y="0px"
	 viewBox="0 0 2050.725 2701.566" style="enable-background:new 0 0 2050.725 2701.566;" xml:space="preserve">
<g id="Layer_1">
</g>
<g id="Layer_2">
	<g>
		<g>
			<g>
				<g>
					<path style="fill:#600000;" d="M930.685,684.803c-20.35-22.577-30.512-54.95-30.512-97.129v-29.778h77.401v35.725
						c0,33.756,14.141,50.618,42.424,50.618c13.889,0,24.433-4.099,31.634-12.281c7.185-8.19,10.79-21.459,10.79-39.824
						c0-21.829-4.963-41.045-14.885-57.682c-9.93-16.613-28.283-36.585-55.074-59.909c-33.752-29.769-57.313-56.685-70.707-80.756
						c-13.398-24.063-20.097-51.229-20.097-81.496c0-41.182,10.42-73.058,31.261-95.642c20.84-22.569,51.1-33.861,90.799-33.861
						c39.193,0,68.846,11.292,88.943,33.861c20.097,22.584,30.143,54.957,30.143,97.128v21.588h-77.405V308.57
						c0-17.866-3.476-30.887-10.42-39.076c-6.952-8.19-17.119-12.281-30.513-12.281c-27.295,0-40.938,16.629-40.938,49.871
						c0,18.863,5.084,36.465,15.259,52.844c10.163,16.372,28.652,36.224,55.448,59.539c34.238,29.77,57.799,56.823,70.707,81.127
						c12.895,24.313,19.349,52.844,19.349,85.587c0,42.685-10.544,75.428-31.63,98.245c-21.097,22.834-51.727,34.238-91.916,34.238
						C981.042,718.663,951.027,707.388,930.685,684.803z"/>
					<path style="fill:#600000;" d="M1255.188,264.655h-85.591v-74.423h253.052v74.423h-85.591v446.566h-81.87V264.655z"/>
					<path style="fill:#600000;" d="M1485.166,684.425c-21.338-22.817-32.004-55.078-32.004-96.751V313.778
						c0-41.68,10.666-73.925,32.004-96.758c21.327-22.81,52.1-34.23,92.29-34.23s70.951,11.42,92.291,34.23
						c21.326,22.833,32.003,55.078,32.003,96.758v273.897c0,41.672-10.677,73.934-32.003,96.751
						c-21.339,22.834-52.101,34.238-92.291,34.238S1506.492,707.259,1485.166,684.425z M1619.88,592.883V308.57
						c0-34.238-14.141-51.358-42.424-51.358c-28.283,0-42.424,17.12-42.424,51.358v284.313c0,34.237,14.141,51.357,42.424,51.357
						C1605.738,644.24,1619.88,627.121,1619.88,592.883z"/>
					<path style="fill:#600000;" d="M1756.824,190.232h120.569c40.68,0,71.197,10.914,91.547,32.743
						c20.342,21.844,30.517,53.849,30.517,96.011v51.357c0,42.179-10.175,74.182-30.517,96.011
						c-20.35,21.837-50.866,32.752-91.547,32.752h-38.698v212.115h-81.871V190.232z M1877.393,424.674
						c13.398,0,23.448-3.721,30.143-11.164c6.699-7.442,10.05-20.092,10.05-37.959v-61.774c0-17.858-3.351-30.517-10.05-37.959
						c-6.695-7.443-16.745-11.164-30.143-11.164h-38.698v160.019H1877.393z"/>
				</g>
				<g>
					<path style="fill:#772400;" d="M923.742,1111.577c-12.192-13.218-18.284-31.869-18.284-55.957V889.954
						c0-24.084,6.093-42.74,18.284-55.957c12.187-13.217,29.887-19.826,53.094-19.826c23.199,0,40.901,6.609,53.093,19.826
						c12.185,13.217,18.285,31.873,18.285,55.957v32.601h-45.823v-35.689c0-19.088-8.081-28.637-24.232-28.637
						c-16.157,0-24.234,9.549-24.234,28.637v172.278c0,18.798,8.077,28.2,24.234,28.2c16.151,0,24.232-9.401,24.232-28.2v-47.146
						h45.823v43.621c0,24.089-6.099,42.739-18.285,55.957c-12.192,13.217-29.894,19.826-53.093,19.826
						C953.629,1131.403,935.93,1124.794,923.742,1111.577z"/>
					<path style="fill:#772400;" d="M1077.292,818.577h48.466v264.362h79.749v44.058h-128.215V818.577z"/>
					<path style="fill:#772400;" d="M1228.856,818.577h48.466v308.42h-48.466V818.577z"/>
					<path style="fill:#772400;" d="M1313.446,818.577h69.172l30.843,220.741h0.882l30.841-220.741h69.175v308.42h-45.823V893.48
						h-0.88l-35.249,233.516h-40.535l-35.249-233.516h-0.88v233.516h-42.297V818.577z"/>
					<path style="fill:#772400;" d="M1587.936,818.577h65.651l50.227,308.42h-48.466l-8.812-61.243v0.88h-55.075l-8.812,60.363
						h-44.94L1587.936,818.577z M1640.807,1024.779l-21.589-152.447h-0.88l-21.149,152.447H1640.807z"/>
					<path style="fill:#772400;" d="M1744.791,862.635h-50.668v-44.058h149.804v44.058h-50.669v264.362h-48.466V862.635z"/>
					<path style="fill:#772400;" d="M1867.277,818.577h132.179v44.058h-83.712v81.512h66.53v44.063h-66.53v94.729h83.712v44.058
						h-132.179V818.577z"/>
				</g>
				<g>
					<path style="fill:#DD6512;" d="M924.952,1531.79c-12.998-14.092-19.494-33.976-19.494-59.658v-176.619
						c0-25.677,6.496-45.567,19.494-59.658c12.993-14.092,31.863-21.137,56.604-21.137c24.734,0,43.606,7.046,56.605,21.137
						c12.991,14.091,19.493,33.981,19.493,59.658v34.757H1008.8v-38.049c0-20.351-8.616-30.531-25.834-30.531
						c-17.226,0-25.837,10.18-25.837,30.531v183.671c0,20.041,8.611,30.065,25.837,30.065c17.219,0,25.834-10.024,25.834-30.065
						v-50.264h48.854v46.505c0,25.683-6.503,45.567-19.493,59.658c-12.998,14.091-31.871,21.137-56.605,21.137
						C956.815,1552.927,937.945,1545.881,924.952,1531.79z"/>
					<path style="fill:#DD6512;" d="M1088.655,1219.415h51.671v133.874h55.427v-133.874h51.671v328.815h-51.671v-147.965h-55.427
						v147.965h-51.671V1219.415z"/>
					<path style="fill:#DD6512;" d="M1325.87,1219.415h69.994l53.547,328.815h-51.671l-9.394-65.293v0.938h-58.717l-9.395,64.355
						h-47.913L1325.87,1219.415z M1382.239,1439.252l-23.017-162.528h-0.938l-22.547,162.528H1382.239z"/>
					<path style="fill:#DD6512;" d="M1474.302,1219.415h64.822l50.263,196.819h0.938v-196.819h46.036v328.815h-53.081
						l-62.004-240.036h-0.941v240.036h-46.033V1219.415z"/>
					<path style="fill:#DD6512;" d="M1690.845,1531.557c-13.153-14.248-19.729-34.68-19.729-61.301V1297.39
						c0-26.615,6.576-47.048,19.729-61.302c13.153-14.243,32.249-21.37,57.307-21.37c25.051,0,44.157,7.127,57.309,21.37
						c13.153,14.254,19.73,34.686,19.73,61.302v28.183h-48.854v-31.47c0-21.609-8.925-32.414-26.775-32.414
						c-17.85,0-26.775,10.805-26.775,32.414v179.906c0,21.304,8.925,31.947,26.775,31.947c17.85,0,26.775-10.643,26.775-31.947
						v-64.349H1750.5v-46.977h74.691v107.573c0,26.621-6.577,47.052-19.73,61.301c-13.153,14.254-32.259,21.37-57.309,21.37
						C1723.094,1552.927,1703.998,1545.81,1690.845,1531.557z"/>
					<path style="fill:#DD6512;" d="M1858.537,1219.415h140.919v46.971h-89.248v86.903h70.929v46.976h-70.929v100.994h89.248v46.972
						h-140.919V1219.415z"/>
				</g>
			</g>
			<g>
				<g>
					<path style="fill:#DD0000;" d="M918.044,672.163c-20.35-22.577-30.512-54.949-30.512-97.129v-29.778h77.401v35.725
						c0,33.755,14.141,50.618,42.423,50.618c13.889,0,24.433-4.099,31.634-12.281c7.185-8.19,10.79-21.459,10.79-39.824
						c0-21.829-4.963-41.045-14.885-57.682c-9.93-16.613-28.283-36.585-55.074-59.909c-33.752-29.769-57.313-56.685-70.707-80.756
						c-13.397-24.063-20.097-51.229-20.097-81.496c0-41.182,10.42-73.058,31.261-95.642c20.84-22.569,51.1-33.861,90.799-33.861
						c39.193,0,68.846,11.292,88.943,33.861c20.097,22.584,30.143,54.957,30.143,97.128v21.588h-77.405V295.93
						c0-17.866-3.476-30.886-10.42-39.076c-6.952-8.19-17.119-12.281-30.513-12.281c-27.294,0-40.938,16.628-40.938,49.87
						c0,18.863,5.084,36.465,15.259,52.844c10.163,16.372,28.652,36.224,55.448,59.539c34.238,29.77,57.799,56.823,70.707,81.127
						c12.895,24.313,19.349,52.844,19.349,85.587c0,42.685-10.544,75.428-31.63,98.245c-21.097,22.834-51.727,34.238-91.916,34.238
						C968.401,706.023,938.387,694.747,918.044,672.163z"/>
					<path style="fill:#DD0000;" d="M1242.547,252.015h-85.591v-74.423h253.052v74.423h-85.591v446.566h-81.87V252.015z"/>
					<path style="fill:#DD0000;" d="M1472.525,671.785c-21.338-22.817-32.004-55.078-32.004-96.751V301.137
						c0-41.68,10.666-73.925,32.004-96.758c21.327-22.81,52.101-34.23,92.29-34.23c40.19,0,70.952,11.421,92.291,34.23
						c21.326,22.833,32.003,55.078,32.003,96.758v273.897c0,41.672-10.677,73.934-32.003,96.751
						c-21.339,22.834-52.101,34.238-92.291,34.238C1524.626,706.023,1493.852,694.619,1472.525,671.785z M1607.239,580.243V295.93
						c0-34.238-14.141-51.357-42.424-51.357c-28.283,0-42.424,17.119-42.424,51.357v284.313c0,34.237,14.141,51.357,42.424,51.357
						C1593.098,631.6,1607.239,614.48,1607.239,580.243z"/>
					<path style="fill:#DD0000;" d="M1744.183,177.591h120.569c40.68,0,71.197,10.914,91.547,32.743
						c20.342,21.844,30.518,53.849,30.518,96.011v51.357c0,42.179-10.175,74.182-30.518,96.011
						c-20.35,21.837-50.866,32.752-91.547,32.752h-38.698v212.115h-81.87V177.591z M1864.752,412.034
						c13.398,0,23.448-3.721,30.143-11.164c6.699-7.442,10.05-20.092,10.05-37.959v-61.774c0-17.858-3.351-30.517-10.05-37.959
						c-6.695-7.443-16.745-11.164-30.143-11.164h-38.698v160.019H1864.752z"/>
				</g>
				<g>
					<path style="fill:#EA6D11;" d="M911.102,1098.936c-12.192-13.218-18.284-31.868-18.284-55.957V877.314
						c0-24.084,6.093-42.74,18.284-55.957c12.187-13.217,29.887-19.826,53.094-19.826c23.2,0,40.901,6.609,53.093,19.826
						c12.185,13.217,18.285,31.873,18.285,55.957v32.602H989.75v-35.689c0-19.089-8.081-28.637-24.232-28.637
						c-16.157,0-24.234,9.549-24.234,28.637v172.278c0,18.798,8.077,28.2,24.234,28.2c16.151,0,24.232-9.401,24.232-28.2v-47.146
						h45.823v43.62c0,24.089-6.099,42.74-18.285,55.957c-12.192,13.217-29.893,19.826-53.093,19.826
						C940.989,1118.762,923.289,1112.153,911.102,1098.936z"/>
					<path style="fill:#EA6D11;" d="M1064.651,805.936h48.466v264.362h79.749v44.058h-128.215V805.936z"/>
					<path style="fill:#EA6D11;" d="M1216.215,805.936h48.466v308.42h-48.466V805.936z"/>
					<path style="fill:#EA6D11;" d="M1300.806,805.936h69.173l30.843,220.742h0.882l30.841-220.742h69.175v308.42h-45.823V880.84
						h-0.88l-35.249,233.516h-40.535l-35.249-233.516h-0.88v233.516h-42.297V805.936z"/>
					<path style="fill:#EA6D11;" d="M1575.295,805.936h65.652l50.227,308.42h-48.466l-8.812-61.243v0.88h-55.075l-8.811,60.363
						h-44.94L1575.295,805.936z M1628.167,1012.138l-21.589-152.447h-0.88l-21.149,152.447H1628.167z"/>
					<path style="fill:#EA6D11;" d="M1732.15,849.994h-50.669v-44.058h149.804v44.058h-50.669v264.362h-48.466V849.994z"/>
					<path style="fill:#EA6D11;" d="M1854.638,805.936h132.179v44.058h-83.713v81.512h66.529v44.063h-66.529v94.729h83.713v44.058
						h-132.179V805.936z"/>
				</g>
				<g>
					<path style="fill:#FFC022;" d="M912.311,1519.15c-12.998-14.092-19.494-33.976-19.494-59.658v-176.62
						c0-25.677,6.496-45.567,19.494-59.658c12.993-14.092,31.863-21.137,56.604-21.137c24.734,0,43.606,7.046,56.605,21.137
						c12.991,14.091,19.493,33.981,19.493,59.658v34.757H996.16v-38.049c0-20.351-8.616-30.531-25.835-30.531
						c-17.226,0-25.837,10.18-25.837,30.531v183.671c0,20.041,8.611,30.065,25.837,30.065c17.219,0,25.835-10.024,25.835-30.065
						v-50.264h48.853v46.505c0,25.682-6.503,45.566-19.493,59.658c-12.998,14.091-31.871,21.137-56.605,21.137
						C944.174,1540.287,925.305,1533.241,912.311,1519.15z"/>
					<path style="fill:#FFC022;" d="M1076.014,1206.774h51.671v133.874h55.427v-133.874h51.671v328.815h-51.671v-147.965h-55.427
						v147.965h-51.671V1206.774z"/>
					<path style="fill:#FFC022;" d="M1313.23,1206.774h69.994l53.547,328.815h-51.671l-9.394-65.293v0.938h-58.717l-9.395,64.355
						h-47.913L1313.23,1206.774z M1369.598,1426.612l-23.017-162.528h-0.938l-22.547,162.528H1369.598z"/>
					<path style="fill:#FFC022;" d="M1461.662,1206.774h64.822l50.263,196.819h0.938v-196.819h46.036v328.815h-53.081
						l-62.004-240.036h-0.941v240.036h-46.033V1206.774z"/>
					<path style="fill:#FFC022;" d="M1678.204,1518.916c-13.153-14.248-19.729-34.68-19.729-61.301v-172.866
						c0-26.615,6.576-47.048,19.729-61.302c13.153-14.243,32.249-21.37,57.307-21.37c25.05,0,44.156,7.127,57.309,21.37
						c13.153,14.254,19.73,34.686,19.73,61.302v28.183h-48.854v-31.47c0-21.609-8.925-32.413-26.775-32.413
						c-17.85,0-26.775,10.805-26.775,32.413v179.906c0,21.304,8.925,31.947,26.775,31.947c17.849,0,26.775-10.643,26.775-31.947
						v-64.349h-25.837v-46.977h74.69v107.573c0,26.62-6.577,47.052-19.73,61.301c-13.153,14.254-32.259,21.371-57.309,21.371
						C1710.453,1540.287,1691.358,1533.17,1678.204,1518.916z"/>
					<path style="fill:#FFC022;" d="M1845.897,1206.774h140.92v46.971h-89.249v86.903h70.929v46.976h-70.929v100.994h89.249v46.971
						h-140.92V1206.774z"/>
				</g>
			</g>
		</g>
		<g>
			<path style="fill:#B2CCD3;" d="M766.716,67.539H461.633c-15.232,0-27.58,12.348-27.58,27.58v1605.582
				c0,15.232,12.348,27.58,27.58,27.58h305.083c15.232,0,27.58-12.348,27.58-27.58V95.119
				C794.296,79.887,781.948,67.539,766.716,67.539z"/>
			<circle style="fill:#B2CCD3;" cx="614.175" cy="2071.12" r="562.907"/>
			<g>
				<rect x="492.804" y="686.114" style="fill:#EA6D11;" width="242.742" height="328.84"/>
				<path style="fill:#D84012;" d="M492.804,1580.197c0,67.03,54.34,121.37,121.371,121.37l0,0
					c67.031,0,121.371-54.34,121.371-121.37v-565.244H492.804V1580.197z"/>
				<rect x="492.804" y="412.08" style="fill:#FF9E1F;" width="242.742" height="274.034"/>
				<path style="fill:#FFC022;" d="M735.546,250.028c0-67.03-54.34-121.37-121.371-121.37l0,0
					c-67.032,0-121.371,54.34-121.371,121.37V412.08h242.742V250.028z"/>
			</g>
		</g>
		<g>
			<g>
				<g>
					<path style="fill:#009EDB;" d="M1105.283,2159.909c-49.018,271.224-308.655,451.361-579.894,402.327
						c-271.227-49.036-451.354-308.667-402.322-579.902c49.036-271.235,308.653-451.365,579.895-402.33
						C974.201,1629.039,1154.318,1888.662,1105.283,2159.909z"/>
					<path style="fill:#1460AD;" d="M614.75,2572.247c-29.878,0-60.06-2.719-89.71-8.079
						c-271.861-49.15-453.051-310.316-403.907-582.184c43.159-238.725,250.27-411.993,492.464-411.993
						c29.878,0,60.062,2.719,89.712,8.079c271.863,49.146,453.056,310.316,403.907,582.188
						C1064.07,2398.979,856.96,2572.247,614.75,2572.247z M613.597,1573.92c-240.294,0-445.778,171.909-488.597,408.763
						c-48.761,269.735,131.008,528.856,400.738,577.619c29.42,5.321,59.368,8.017,89.012,8.017
						c240.307,0,445.794-171.91,488.599-408.759c48.764-269.739-131.006-528.86-400.738-577.623
						C673.19,1576.616,643.242,1573.92,613.597,1573.92z"/>
				</g>
				<path style="opacity:0.5;fill:#009EDB;" d="M692.463,2467.172c3.449,33.952,31.243,52.936,64.688,51.16
					c26.014-1.388,51.119-10.407,74.804-20.814c41.839-18.375,83.126-41.939,117.463-72.323
					c30.697-27.148,65.582-68.435,51.13-112.636c-9.379-28.663-27.36-50.428-25.308-82.052c1.285-19.748,7.415-38.79,10.393-57.973
					c0.915-20.243-1.805-41.551-18.428-54.463c-22.795-17.726-49.329,8.539-62.728,26.111
					c-16.834,22.046-27.285,48.418-42.167,71.791c-31.939,50.183-79.077,86.931-116.503,132.664
					c-18.629,22.751-42.248,55.131-51.809,87.69C692.256,2446.587,691.433,2456.942,692.463,2467.172z"/>
				<path style="opacity:0.5;fill:#009EDB;" d="M883.223,1859.896c-1.966,4.891-3.471,9.977-4.41,15.21
					c-4.971,27.554,10.542,49.469,13.574,76.117c1.51,13.173-2.307,64.668,21.179,62.55c26.721-2.405,14.437-33.791,15.158-51.123
					c0.888-21.504,14.065-37.972,23.463-56.35c10.163-19.882,13.838-48.786-0.78-67.905
					C930.497,1811.049,899.712,1835.714,883.223,1859.896z"/>
				<path style="opacity:0.5;fill:#009EDB;" d="M550.556,2264.919c-20.058-14.856-43.218-26.215-61.671-43.185
					c-21.898-20.124-39.096-44.866-51.09-72.074c-14.037-31.839-18.125-64.456-26-97.971c-7.025-29.836-19.113-57.667-46.175-74.096
					c-18.75-11.382-39.637-17.869-59.84-26.085c-17.818-7.227-36.306-16.027-48.721-31.298c-8.387-10.323-13.606-22.203-15.818-34.7
					c-3.25-5.681-2.552-15.536-0.349-25.962c0.407-2.724,0.905-5.44,1.559-8.144c3.246-13.441,8.549-26.507,12.445-39.814
					c2.294-11.186,3.211-25.536-7.337-29.733c-11.469-4.577-25.243,12.854-31.29,20.296c-10.233,12.563-21.882,27.922-26.596,43.737
					c-9.141,30.692-9.04,64.161,2.777,94.216c11.498,29.257,29.453,48.203,57.538,61.725c19.671,9.475,41.433,17.948,55.994,34.999
					c43.442,50.885,6.249,113.53-8.487,167.476c-8.984,32.913-14.586,65.503-1.914,98.439c1.398,3.64,3.009,7.223,4.799,10.676
					c30.26,41.122,105.835-0.621,147.008,0.967c30.667,1.181,56.855,14.124,85.121,24.408c13.994,5.087,50.597,15.64,55.614-6.951
					C594.239,2304.426,570.571,2279.741,550.556,2264.919z"/>
				<path style="opacity:0.5;fill:#009EDB;" d="M702.91,2553.298c-6.581-15.847-17.958-15.398-33.158-16.837
					c-13.271-1.254-21.94-9.099-31.365-17.872c-6.678-6.202-14.458-12.298-17.337-21.355c-6.191-19.418,3.809-38.325,8.196-56.983
					c2.817-11.942,4.22-25.532-4.067-35.809c-8.437-10.461-20.98-14.052-33.889-15.682c-24.784-3.138-50.129-0.142-73.8-9.36
					c-17.224-6.698-34.296-16.775-52.429-20.641c-14.4-3.058-29.593-2.042-43.801-5.529c-16.401-4.024-32.986-12.896-50.294-10.871
					c-15.081,1.772-28.235,8.201-41.365,15.474c-11.301,6.264-23.03,13.284-35.754,16.23c-14.602,3.391-27.318,0.786-41.988,1.071
					c-10.449,0.199-21.058,1.979-31.432,2.601c72.827,93.591,179.078,161.737,304.961,184.5
					c61.817,11.177,122.996,10.41,181.245-0.584C705.277,2558.99,704.096,2556.171,702.91,2553.298z"/>
				<path style="fill:#FFBE2C;" d="M644.078,2569.378c-0.933-3.628-2.488-7.242-4.929-10.871
					c-7.402-11.055-16.879-20.718-23.927-31.98c-10.384-16.541-7.251-31.996-6.891-50.674c0.378-19.521-4.109-41.667-12.563-59.293
					c-6.068-12.62-15.208-17.404-29.167-17.884c-10.361-0.341-20.7,0.637-31.073,0.403c-56.515-1.297-108.24-29.583-164.518-30.592
					c-15.607-0.276-30.224,1.765-44.983,6.962c-13.542,4.76-26.867,10.676-40.861,14.054c-18.448,4.454-36.651,2.582-54.967,0.384
					c72.416,87.319,174.81,150.582,295.189,172.348C565.416,2569.474,605.185,2571.679,644.078,2569.378z"/>
				<path style="fill:#FFBE2C;" d="M639.149,2558.507c-7.402-11.055-16.879-20.718-23.927-31.98
					c-10.384-16.541-7.251-31.996-6.891-50.674c0.378-19.521-4.109-41.667-12.563-59.293c-6.068-12.62-15.208-17.404-29.167-17.884
					c-10.361-0.341-20.7,0.637-31.073,0.403c-56.515-1.297-108.24-29.583-164.518-30.592c-15.607-0.276-30.224,1.765-44.983,6.962
					c-13.542,4.76-26.867,10.676-40.861,14.054c-18.448,4.454-36.651,2.582-54.967,0.384
					c72.416,87.319,174.81,150.582,295.189,172.348c40.027,7.238,79.796,9.444,118.69,7.142
					C643.146,2565.75,641.59,2562.136,639.149,2558.507z M501.843,2501.373c-8.157,14.378-20.421,27.742-38.471,26.392
					c-38.086-2.862-67.301-39.273-96.757-59.661c-7.49-5.194-15.467-10.292-24.765-11.17c-8.904-0.844-17.861,0.023-26.775-0.694
					c-13.29,5.228-27.33-11.006-32.895-21.255c-6.68-12.256-6.034-25.636,7.532-32.859c7.643-4.078,15.95-6.494,24.518-7.68
					c11.439-1.576,23.273,0.802,34.564-1.223c4.958-0.89,9.663-2.555,14.151-4.154c2.296-1.834,4.767-3.422,7.561-4.538
					c12.771-5.079,28.441-2.957,39.643,4.979c14.99,10.634,25.728,24.742,37.123,38.832c9.414,11.619,18.95,12.348,32.541,14.385
					c6.933,1.036,14.335,2.685,20.087,6.97C517.383,2462.707,511.113,2485.04,501.843,2501.373z M543.864,2533.999
					c-4.823,2.466-10.088,4.3-15.328,1.795c-4.057-1.933-7.21-5.731-8.553-10.02c-1.154-3.736-1.423-8.358,1.197-11.588
					c0.805-1.001,1.773-1.715,2.823-2.202c0.309-0.599,0.616-1.201,1.017-1.761c5.576-7.94,16.702-5.489,22.534,0.836
					C554.581,2518.673,553.468,2529.096,543.864,2533.999z M569.888,2467.916c-5.455,9.241-14.96,19.268-26.712,18.198
					c-10.242-0.944-18.445-8.987-23.338-17.561c-2.458-4.312-4.92-10.89-6.016-17.419c-0.24-0.253-0.44-0.571-0.543-1.025
					c-1.876-8.953-2.119-20.265,6.316-26.157c7.448-5.197,17.594-4.933,25.945-2.171
					C564.501,2428.056,581.871,2447.601,569.888,2467.916z"/>
				<path style="fill:#FFBE2C;" d="M457.657,2394.062c21.294,10.645,42.999,10.618,66.19,9.399
					c16.767-0.886,34.472-1.347,49.235,7.848c13.072,8.136,19.13,25.736,21.516,40.09c1.383,8.347,2.461,16.921-0.368,25.118
					c-3.312,9.597-9.225,18.589-11.613,28.451c-6.721,27.65,24.583,32.092,42.125,42.848c8.47,5.201,14.132,12.919,18.01,21.619
					c0.437-0.027,0.892-0.035,1.327-0.058c-0.933-3.628-2.488-7.242-4.929-10.871c-7.402-11.055-16.879-20.718-23.927-31.98
					c-10.384-16.541-7.251-31.996-6.891-50.674c0.378-19.521-4.109-41.667-12.563-59.293c-6.068-12.62-15.208-17.404-29.167-17.884
					c-10.361-0.341-20.7,0.637-31.073,0.403c-38.782-0.894-75.304-14.485-112.586-23.254
					C434.57,2381.411,445.6,2388.039,457.657,2394.062z"/>
				<path style="opacity:0.5;fill:#009EDB;" d="M204.481,2356.112c0.422-3.475,0.734-6.981,0.815-10.614
					c0.291-13.687,0.344-28.42,6.394-41.049c6.414-13.353,16.999-22.068,25.974-33.5c3.791-4.83,9.014-11.313,9.411-17.826
					c0.361-5.593-1.475-8.977-2.877-13.886c-1.251-4.431-1.835-8.285-0.685-12.866c1.255-4.948,3.031-10.399,8.968-10.365
					c5.178,0.023,22.498,12.693,24.32,1.673c1.319-7.929-0.649-16.782-2.11-24.578c-2.014-10.729-4.412-21.412-7.417-31.907
					c-2.695-9.425-6.664-14.236-16.518-17.561c-10.878-3.672-37.107-8.045-29.087-25.456c6.829-14.845,33.147-3.786,42.344-16.191
					c6.467-8.727,13.783-20.438,16.088-31.229c3.032-14.162-16.604-23.215-26.401-28.631c-10.72-5.919-20.05-14.458-31.11-19.694
					c-9.12-4.319-20.653-5.662-23.609,7.15c-1.2,5.159-2.263,10.265-3.923,15.287c-0.471,1.427-2.637,1.726-3.644,0.778
					c-24.786-23.338-22.861-58.817-36.06-88.078c-7.223-16.012-12.173-31.601-13.619-47.452
					c-7.896,23.235-14.172,47.344-18.67,72.217C98.512,2118.173,131.427,2251.091,204.481,2356.112z"/>
				<path style="opacity:0.5;fill:#009EDB;" d="M932.761,1701.336c-7.908,16.993-5.923,37.278-2.1,55.111
					c6.034,28.222,23.403,48.618,38.006,72.631c12.891,21.185,22.078,46.492,14.284,71.268
					c-9.387,29.844-31.172,56.397-18.889,89.068c10.157,27.005,31.718,54.858,54.945,72.113
					c15.53,11.55,45.329,21.827,44.748,45.817c-0.282,11.869-6.682,20.634-11.855,30.903c-8.079,16.023-5.279,29.349,9.108,40.151
					c8.227,6.176,18.266,11.742,23.413,21.006c3.024,5.443,5.19,11.535,7.039,17.588c5.639-18.516,10.296-37.558,13.821-57.083
					c32.617-180.391-36.181-355.577-165.669-467.169C936.825,1694.945,934.449,1697.699,932.761,1701.336z"/>
				<path style="opacity:0.5;fill:#009EDB;" d="M480.49,1638.564c-27.797,24.673-67.78,19.199-99.415,33.178
					c-8.469,5.765-16.104,12.938-22.872,22.325c-8.065,11.186-14.604,22.198-24.915,31.547c-8.537,7.734-18.154,14.14-27.195,21.256
					c-10.974,8.627-22.847,18.708-27.615,32.341c-4.676,13.441-2.743,28.256-7.733,41.67c-5.417,14.576-15.768,31.344-12.498,47.559
					c1.718,8.55,8.501,20.849,17.247,24.178c6.771,2.582,11.466-3.022,16.532-6.295c31.727-20.507,49.091,10.918,62.269,35.307
					c14.868,27.531,30.998,31.965,59.253,34.651c13.932,1.323,39.224,6.283,35.179,24.653
					c-4.438,20.113-16.462,23.929-12.258,46.727c3.27,17.695,7.03,37.523,16.754,52.929c17.202,27.25,57.529-2.785,60.125,36.361
					c1.182,17.929-9.899,38.34-0.89,55.476c8.973,17.063,32.534,17.235,41.705,34.087c9.565,17.573,4.299,35.341,21.233,49.914
					c32.562,28.003,131.475,66.328,116.894-14.516c-2.965-16.452-11.243-26.598-24.976-35.563
					c-8.217-5.374-35.979-23.645-23.541-37.056c9.686-10.457,23.985-9.092,35.856-15.06c24.196-12.191,24.938-42.99,52.197-52.331
					c15.43-5.293,32.21-7.035,41.4,9.283c7.746,13.764,8.262,30.167,9.716,45.522c1.287,13.664,2.302,38.218,20.371,40.116
					c24.845,2.597,47.701-25.413,61.842-42.48c19.109-23.058,37.474-50.055,35.655-81.556c-1.049-18.271-8.088-36.818-25.58-45.322
					c-7.551-3.663-80.811-5.731-58.321-32.541c10.141-12.083,28.028-12.333,40.378-20.979c11.41-7.983,8.079-26.28,0.948-35.928
					c-7.268-9.817-17.142-17.565-27.8-23.445c-11.559-6.379-34.803-17.182-18.567-32.442c19.983-18.788,47.802-25.524,60.963-51.805
					c6.333-12.631,13.213-32.345,6.222-46.188c-4.542-8.969-14.276-10.848-23.467-11.628c-17.055-1.438-39.827-0.828-51.113-16.552
					c-11.884-16.549-1.715-35.809,18.219-37.129c11.951-0.786,25.9,3.034,37.396-0.809c7.362-2.451,15.697-6.667,19.149-14.132
					c3.947-8.562,2.007-14.965-1.315-23.078c-4.76-11.631-1.446-21.8,5.481-30.028c-53.366-34.22-114.174-58.798-180.443-70.778
					c-65.895-11.91-131.057-10.2-192.728,2.958C509.667,1603.28,494.374,1626.246,480.49,1638.564z"/>
				<g>
					<g>
						<path style="fill:#FFBE2C;" d="M835.429,1789.813c-18.2-2.984-42.44,4.519-59.04-5.562
							c-7.776-4.73-10.528-11.27-10.892-20.331c-0.224-5.797,0.242-11.857-0.714-17.596c-1.411-8.501-7.622-11.642-14.711-15.214
							c-7.727-3.885-14.818-6.34-18.727-14.365c-2.369-4.83-5.846-11.404-1.796-16.257c3.662-4.365,13.24-2.317,17.939-1.856
							c14.113,1.407,27.365,1.6,41.105-2.57c24.892-7.549,46.555-20.618,72.807-22.571c-5.84-12.49-18.096-18.589-30.736-23.266
							c-1.956-0.732-1.578-3.69,0.213-4.331c7.985-2.808,17.874-5.931,25.559-11.255c-46.596-25.851-98.128-44.631-153.476-54.636
							c-0.069-0.011-0.136-0.015-0.208-0.031c-3.701,3.441-6.806,7.714-10.081,12.851c-3.548,5.608-8.197,11.324-14.699,13.629
							c-9.026,3.211-16.105,2.574-24.284-2.551c-7.737-4.86-20.574-13.714-30.248-9.767c-6.819,2.781-12.308,6.629-19.617,8.471
							c-6.37,1.595-14.711-1.121-20.841-2.501c-22.351-5.036-42.058-5.436-62.185,4.4c-10.601,7.181-19.79,16.169-26.346,27.662
							c-8.54,15.01-20.879,22.521-36.881,28.328c-35.017,12.72-72.399,17.024-93.236,51.821
							c-7.766,12.958-14.412,25.352-28.241,32.797c-16.662,8.984-37.42,13.503-41.753,34.704c-2.102,10.28,1.716,19.609,0.706,29.69
							c-0.859,8.512-7.175,14.443-12.659,20.45c-5.263,5.769-16.83,17.757-12.695,26.702c3.222,6.943,9.795,12.294,15.511,17.427
							c6.821-7.833,17.978-22.874,29.081-20.216c14.559,3.483,27.423,17.43,39.459,25.732c9.789,6.744,13.46,13.529,10.967,25.57
							c-1.39,6.74-3.471,8.85,3.787,11.888c6.621,2.77,13.105,5.815,19.405,9.279c8.393,4.615,16.617,9.521,24.87,14.358
							c7.785-0.161,15.538-1.005,23.154-2.942c27.242-6.951,49.014-23.698,67.471-44.424c0.771-0.871,2.43-1.221,3.322-0.257
							c7.683,8.405,19.448,19.406,19.16,31.877c-0.193,8.213-7.983,14.331-12.589,20.288c-5.146,6.644-9.348,14.101-11.455,22.303
							c-3.436,13.357,2.346,22.916,8.46,34.255c10.509,19.452,9.506,40.512,6.702,61.951c-3.174,24.362-6.081,47.996,2.035,71.79
							c5.236,15.39,13.36,29.284,23.127,42.161c14.132,5.267,30.866,9.578,39.724,20.664c4.363,5.444,4.218,12.739,3.356,19.36
							c-0.299,2.305-1.174,5.823-1.929,9.61c1.337,1.718,2.729,3.379,4.018,5.133c3.899,0.725,7.934,1.308,11.983,2.052
							c11.926,2.198,21.438,6.878,31.386,13.767c6.5,4.512,12.848,9.245,19.401,13.687c0.968,0.656,2.606,1.396,4.302,2.237
							c1.718-6.706,3.446-13.399,5.195-20.081c-0.985-3.568-2.211-6.802-3.824-9.387c-5.169-8.374-12.625-15.478-15.789-24.916
							c-2.037-6.118-2.68-15.098-6.646-20.307c-5.689-7.477-12.264-6.36-20.15-5.72c-5.983,0.483-10.851-1.538-12.788-7.745
							c-4.026-12.919-1.634-23.066,12.356-26.622c6.887-1.757,14.425-1.039,21.17-3.26c22.414-7.404,50.269-21.37,52.252-46.006
							c0.575-7.211,1.824-16.241,7.831-21.228c9.335-7.757,22.053-5.09,33.461-7.753c39.923-9.313,49.69-67.505,37.014-99.233
							c-6.907-17.274-16.342-35.602-13.453-54.808c6.143-40.815,55.144-53.77,83.166-76.95c7.857-6.494,17.245-15.022,19.083-25.624
							C855.487,1801.931,848.03,1791.888,835.429,1789.813z"/>
						<path style="fill:#FFBE2C;" d="M848.354,2032.482c-19.025,3.237-37.163,23.829-45.894,39.978
							c-2.388,4.412-4.459,8.965-6.448,13.545c-2.574,10.58-2.317,21.236,5.203,30.696c2.864,3.591,6.932,7.76,7.923,12.444
							c1.441,6.82,0.146,13.948,1.652,20.726c8.088,36.346,47.114-13.004,52.661-26.553c5.825-14.224,1.509-30.346-0.762-45.027
							C861.465,2070.4,860.493,2030.414,848.354,2032.482z"/>
						<path style="fill:#FFBE2C;" d="M952.936,1709.637c-11.051,26.146-10.052,51.836,3.079,77.264
							c11.955,23.166,30.926,43.788,39.771,68.399c9.101,25.352-3.247,42.71-14.373,64.959c-5.61,11.212-11.582,25.337-7.123,37.949
							c2.434,6.885,5.756,13.472,9.273,19.855c9.193,16.656,19.554,32.912,31.405,47.8c4.943,6.226,10.095,12.885,16.526,17.661
							c8.652,6.413,16.115-3.606,19.078-11.684c4.653-12.72,4.876-39.752,21.413-44.179c11.464-3.072,22.314-2.497,32.771-8.596
							c-18.942-100.802-68.605-192.736-140.587-263.667C960.465,1713.396,956.74,1711.455,952.936,1709.637z"/>
						<path style="fill:#FFBE2C;" d="M1078.77,2103.006c1.076,12.21,6.368,24.217,10.709,35.622
							c4.208,11.059,8.592,22.102,13.558,32.863c0.796-3.851,1.55-7.703,2.246-11.581c5.442-30.093,8.053-60.029,8.038-89.551
							c-6.568-7.952-13.703-15.352-22.208-21.313C1086.801,2066.591,1077.177,2084.874,1078.77,2103.006z"/>
						<path style="fill:#FFBE2C;" d="M213.843,2268.575c8.729-11.297,16.155-21.569,14.806-36.519
							c-1.159-12.774-5.242-25.003-10.037-36.837c-8.595-21.263-20.589-42.453-24.825-65.208
							c-2.595-13.909,0.048-27.818,0.694-41.774c0.817-17.822-3.416-32.207-14.216-46.427
							c-7.757-10.211-15.722-19.943-21.303-31.555c-3.521-7.342-4.974-15.505-6.859-23.388c-2.114-8.904-4.128-22.314-11.528-28.594
							c-3.999-3.388-8.126-3.824-11.927-2.574c-2.081,8.773-3.963,17.654-5.582,26.634
							c-22.413,123.999,3.089,245.565,63.265,345.692C193.328,2306.582,199.803,2286.731,213.843,2268.575z"/>
						<path style="fill:#FFBE2C;" d="M252.617,2153.756c-3.853-3.448-17.494-15.371-22.558-8.144
							c-4.406,6.291,1.122,15.279,4.837,20.4c0.633,0.886,0.525,1.773,0.069,2.471c5.867,7.096,13.736,12.413,21.771,17.036
							C257.044,2174.758,260.972,2161.232,252.617,2153.756z"/>
						<path style="fill:#FFBE2C;" d="M477.025,2003.202c-0.138-0.042-0.265-0.042-0.403-0.116
							c-7.187-3.74-15.299-4.005-22.983-6.114c-0.515,11.362,1.959,20.488,13.482,26.065c1.238,0.602,1.531,1.933,1.095,3.137
							c-1.979,5.486-6.966,14.746-4.367,20.78c2.482,5.77,18.846,17.438,22.582,6.134c2.973-8.984,3.446-21.697,1.488-30.948
							C486.355,2014.679,482.441,2008.138,477.025,2003.202z"/>
						<path style="fill:#FFBE2C;" d="M833.16,1935.043c-1.091,4.599-2.561,13.595,3.516,15.896
							c0.453,0.176,11.368,0.978,10.413-1.385c-0.579-1.381-1.122-2.778-1.642-4.189c-2.213-6.291-3.736-12.919-6.318-19.084
							c-2.923-6.963-7.452-12.54-15.442-13.541c-5.842-0.741-11.374-2.432-10.349,5.278c0.315,2.386,0.875,4.607,1.617,6.74
							c4.76,3.717,10.056,6.176,16.312,7.546C832.467,1932.573,833.473,1933.759,833.16,1935.043z"/>
						<path style="fill:#FFBE2C;" d="M262.261,2051.343c-4.605-2.026-9.258-3.963-13.908-5.923
							c-12.812-5.393-24.984-11.144-35.134-20.161c0.23,10.599-2.915,21.523,1.626,31.781c6.343,14.347,21.259,23.047,32.769,33.193
							c6.402-7.902,11.726-17.219,14.419-27.059C262.779,2060.392,266.191,2053.084,262.261,2051.343z"/>
					</g>
					<g>
						<path style="fill:#FFBE2C;" d="M835.429,1789.813c-18.2-2.984-42.44,4.519-59.04-5.562
							c-7.776-4.73-10.528-11.27-10.892-20.331c-0.224-5.797,0.242-11.857-0.714-17.596c-1.411-8.501-7.622-11.642-14.711-15.214
							c-7.727-3.885-14.818-6.34-18.727-14.365c-2.369-4.83-5.846-11.404-1.796-16.257c3.662-4.365,13.24-2.317,17.939-1.856
							c14.113,1.407,27.365,1.6,41.105-2.57c24.892-7.549,46.555-20.618,72.807-22.571c-5.84-12.49-18.096-18.589-30.736-23.266
							c-1.956-0.732-1.578-3.69,0.213-4.331c7.985-2.808,17.874-5.931,25.559-11.255c-46.596-25.851-98.128-44.631-153.476-54.636
							c-0.069-0.011-0.136-0.015-0.208-0.031c-3.701,3.441-6.806,7.714-10.081,12.851c-3.548,5.608-8.197,11.324-14.699,13.629
							c-9.026,3.211-16.105,2.574-24.284-2.551c-7.737-4.86-20.574-13.714-30.248-9.767c-6.819,2.781-12.308,6.629-19.617,8.471
							c-6.37,1.595-14.711-1.121-20.841-2.501c-22.351-5.036-42.058-5.436-62.185,4.4c-10.601,7.181-19.79,16.169-26.346,27.662
							c-8.54,15.01-20.879,22.521-36.881,28.328c-35.017,12.72-72.399,17.024-93.236,51.821
							c-7.766,12.958-14.412,25.352-28.241,32.797c-16.662,8.984-37.42,13.503-41.753,34.704c-2.102,10.28,1.716,19.609,0.706,29.69
							c-0.859,8.512-7.175,14.443-12.659,20.45c-5.263,5.769-16.83,17.757-12.695,26.702c3.222,6.943,9.795,12.294,15.511,17.427
							c6.821-7.833,17.978-22.874,29.081-20.216c14.559,3.483,27.423,17.43,39.459,25.732c9.789,6.744,13.46,13.529,10.967,25.57
							c-1.39,6.74-3.471,8.85,3.787,11.888c6.621,2.77,13.105,5.815,19.405,9.279c8.393,4.615,16.617,9.521,24.87,14.358
							c7.785-0.161,15.538-1.005,23.154-2.942c27.242-6.951,49.014-23.698,67.471-44.424c0.771-0.871,2.43-1.221,3.322-0.257
							c7.683,8.405,19.448,19.406,19.16,31.877c-0.193,8.213-7.983,14.331-12.589,20.288c-5.146,6.644-9.348,14.101-11.455,22.303
							c-3.436,13.357,2.346,22.916,8.46,34.255c10.509,19.452,9.506,40.512,6.702,61.951c-3.174,24.362-6.081,47.996,2.035,71.79
							c5.236,15.39,13.36,29.284,23.127,42.161c14.132,5.267,30.866,9.578,39.724,20.664c4.363,5.444,4.218,12.739,3.356,19.36
							c-0.299,2.305-1.174,5.823-1.929,9.61c1.337,1.718,2.729,3.379,4.018,5.133c3.899,0.725,7.934,1.308,11.983,2.052
							c11.926,2.198,21.438,6.878,31.386,13.767c6.5,4.512,12.848,9.245,19.401,13.687c0.968,0.656,2.606,1.396,4.302,2.237
							c1.718-6.706,3.446-13.399,5.195-20.081c-0.985-3.568-2.211-6.802-3.824-9.387c-5.169-8.374-12.625-15.478-15.789-24.916
							c-2.037-6.118-2.68-15.098-6.646-20.307c-5.689-7.477-12.264-6.36-20.15-5.72c-5.983,0.483-10.851-1.538-12.788-7.745
							c-4.026-12.919-1.634-23.066,12.356-26.622c6.887-1.757,14.425-1.039,21.17-3.26c22.414-7.404,50.269-21.37,52.252-46.006
							c0.575-7.211,1.824-16.241,7.831-21.228c9.335-7.757,22.053-5.09,33.461-7.753c39.923-9.313,49.69-67.505,37.014-99.233
							c-6.907-17.274-16.342-35.602-13.453-54.808c6.143-40.815,55.144-53.77,83.166-76.95c7.857-6.494,17.245-15.022,19.083-25.624
							C855.487,1801.931,848.03,1791.888,835.429,1789.813z M725.355,1633.282c9.062-6.004,19.471-6.103,29.909-5.869
							c11.566-5.47,23.727-8.62,32.086,0.583c15.289,16.825-7.992,28.002-21.736,29.871c-12.358,1.684-39.321,7.135-48.384-3.986
							C712.291,1647.847,720.544,1636.465,725.355,1633.282z M637.215,2088.713c-10.152,5.006-21.113,8.635-30.88,14.412
							c-11.454,6.775-16.79,14.405-19.977,27.397c-1.957,7.956-4.707,21.584-13.942,24.608c-10.194,3.345-19.521-0.725-26.635-8.508
							c-17.093-18.697-22.609-46.826-20.659-71.503c1.237-15.812,5.896-28.49,12.712-42.71c3.844-8.036,9.086-17.657,8.236-26.878
							c-0.692-7.454-3.5-13.829-6.654-20.5c-4.889-10.368-9.717-22.019-4.097-33.204c2.823-5.585,6.541-10.342,10.75-14.68
							c6.958-14.074,19.159-26.327,30.935-35.494c14.75-11.485,36.049-24.539,55.739-20.181
							c16.485,3.651,31.709,22.337,28.613,39.925c-3.493,19.774-25.247,28.582-38.807,40.55
							c-8.529,7.499-17.245,18.796-12.854,30.926c3.491,9.621,11.54,15.969,19.74,21.577c12.812,8.746,32.457,18.93,33.599,36.672
							C664.221,2069.333,652.641,2081.095,637.215,2088.713z M679.617,1930.747c-19.102-1.772-10.288-26.457,2.371-31.674
							c0.04-0.61,0.338-1.193,1.003-1.622c9.987-6.545,18.919,0.748,18.527,11.93
							C701.086,1921.441,692.488,1931.948,679.617,1930.747z M724.783,1805.962c-16.153,21.409-42.335,29.043-65.369,40.508
							c-21.376,10.645-49.676,22.805-72.262,7.33c-16.763-11.481-6.293-27.715-11.98-43.474
							c-10.491-28.996-49.718-5.899-65.016,4.907c-18.629,13.165-34.29,29.763-52.534,43.293
							c-15.622,11.585-40.433,26.142-59.108,11.914c-9.973-7.599-15.298-17.507-18.074-29.537
							c-3.993-17.312-8.953-27.454-29.044-27.496c-11.568-0.008-21.113-1.703-29.029-10.94c-4.551-5.31-8.207-12.046-5.794-19.199
							c6.349-18.819,28.716-23.442,42.249-35.211c11.541-10.02,14.31-26.043,27.073-35.195
							c10.641-7.626,22.945-13.787,35.364-17.972c22.751-7.676,52.622-8.335,71.589-24.47
							c19.073-16.222,19.155-47.129,46.653-54.636c15.237-4.166,28.411,2.95,43.531,1.957c13.056-0.852,22.801-10.526,35.886-10.572
							c13.355-0.05,24.439,10.599,37.378,12.525c7.954,1.181,16.34-0.526,23.948-4.082c7.691-8.719,16.956-19.928,27.742-20.707
							c12.346-0.882,12.204,23.518,9.657,30.458c-5.789,15.847-23.334,17.044-36.892,22.997
							c-5.449,2.394-17.396,6.874-18.313,14.274c-0.677,5.508,3.122,10.208,6.941,13.718c6.188,5.669,13.065,10.376,19.9,15.202
							c8.795,6.202,17.974,13.28,20.367,24.42c2.655,12.344-0.155,24.516,6.18,36.108
							C726.326,1771.273,740.653,1784.937,724.783,1805.962z"/>
						<path style="fill:#FFBE2C;" d="M835.429,1789.813c-18.2-2.984-42.44,4.519-59.04-5.562
							c-7.776-4.73-10.528-11.27-10.892-20.331c-0.224-5.797,0.242-11.857-0.714-17.596c-1.411-8.501-7.622-11.642-14.711-15.214
							c-6.853-3.444-13.177-5.784-17.26-11.841c3.521,9.156,15.106,15.632,18.369,25.191c3.439,10.092-0.278,20.231,0.627,30.534
							c2.152,24.627,29.449,19.721,47.217,19.108c10.703-0.376,30.663-0.065,31.085,15.079c0.509,18.332-18.829,29.802-33.076,37.14
							c-19.608,10.089-49.718,18.133-61.106,38.56c-15.062,26.998,3.572,56.596,13.987,81.626
							c9.319,22.421,14.705,49.108,0.205,70.866c-6.076,9.11-13.994,16.464-24.115,20.898c-10.893,4.775-25.713,4.775-35.144,12.268
							c-9.649,7.664-10.597,21.512-13.9,32.575c-2.731,9.149-10.131,17.27-18.056,22.33c-20.054,12.785-50.29,11.857-63.469,34.597
							c-4.484,7.718-5.945,16.763-0.554,24.608c6.916,10.07,13.859,6.391,23.461,8.27c5.89,1.152,12.938,3.223,13.998,10.054
							c1.072,6.993,1.526,15.866,8.504,19.679c3.69,2.025,7.488,3.932,10.967,6.325c-4.486-6.091-9.41-11.941-11.83-19.149
							c-2.037-6.118-2.68-15.098-6.646-20.307c-5.689-7.477-12.264-6.36-20.15-5.72c-5.983,0.483-10.851-1.538-12.788-7.745
							c-4.026-12.919-1.634-23.066,12.356-26.622c6.887-1.757,14.425-1.039,21.17-3.26c22.414-7.404,50.269-21.37,52.252-46.006
							c0.575-7.211,1.824-16.241,7.831-21.228c9.335-7.757,22.053-5.09,33.461-7.753c39.923-9.313,49.69-67.505,37.014-99.233
							c-6.907-17.274-16.342-35.602-13.453-54.808c6.143-40.815,55.144-53.77,83.166-76.95c7.857-6.494,17.245-15.022,19.083-25.624
							C855.487,1801.931,848.03,1791.888,835.429,1789.813z"/>
						<path style="fill:#FFBE2C;" d="M862.689,2078.291c-1.224-7.891-2.196-47.877-14.335-45.809
							c-19.025,3.237-37.163,23.829-45.894,39.978c-2.388,4.412-4.459,8.965-6.448,13.545c-2.574,10.58-2.317,21.236,5.203,30.696
							c2.864,3.591,6.932,7.76,7.923,12.444c1.441,6.82,0.146,13.948,1.652,20.726c8.088,36.346,47.114-13.004,52.661-26.553
							C869.276,2109.094,864.96,2092.971,862.689,2078.291z M833.104,2138.753c-2.909,4.833-11.512,10.396-15.049,3.157
							c-2.076-4.262-0.743-9.621,2.556-12.85c0.522-1.78,1.389-3.464,2.969-4.338c2.038-1.124,4.285-1.117,6.305,0.073
							C834.669,2127.633,835.904,2134.127,833.104,2138.753z M836.393,2109.186c-8.982,14.212-25.404,11.938-32.724-3.145
							c-9.253-19.031,3.254-30.412,14.546-43.481c5.81-9.747,17.674-22.372,24.809-6.572
							C849.664,2070.669,844.764,2095.948,836.393,2109.186z"/>
						<path style="fill:#FFBE2C;" d="M964.168,1715.398c-3.703-2.002-7.428-3.943-11.232-5.762
							c-11.051,26.146-10.052,51.836,3.079,77.264c11.955,23.166,30.926,43.788,39.771,68.399
							c9.101,25.352-3.247,42.71-14.373,64.959c-5.61,11.212-11.582,25.337-7.123,37.949c2.434,6.885,5.756,13.472,9.273,19.855
							c9.193,16.656,19.554,32.912,31.405,47.8c4.943,6.226,10.095,12.885,16.526,17.661c8.652,6.413,16.115-3.606,19.078-11.684
							c4.653-12.72,4.876-39.752,21.413-44.179c11.464-3.072,22.314-2.497,32.771-8.596
							C1085.813,1878.263,1036.15,1786.33,964.168,1715.398z M1023.53,1980.024c-10.829,17.802-23.729,1.366-30.122-10.806
							c-4.816-9.156-10.114-19.314-7.645-30.036c2.902-12.574,11.496-22.061,16.15-33.857c7.119-18.044,3.834-40.642-1.435-58.875
							c-4.619-16-12.45-28.674-23.164-41.237c-10.217-12.003-17.116-27.884-18.203-43.988c-2.298-8.155-3.514-16.452-1.406-24.293
							c1.27-4.753,6.727-9.429,11.893-7.523c8.787,3.25,13.958,13.944,19.464,20.956c17.536,22.368,34.317,46.239,43.814,73.286
							c4.813,13.721,9.634,29.403,9.734,44.076c0.076,12.923-3.865,24.086-7.827,36.185c-5.705,17.5-2.555,34.267-4.841,52.055
							C1028.931,1963.863,1027.75,1973.077,1023.53,1980.024z M1060.757,1960.852c-5.261,9.809-15.998,11.734-21.871,1.488
							c-3.976-6.943-3.736-16.253,1.853-21.597c2.179-7.745,6.174-16.437,13.77-14.722
							C1067.287,1928.906,1065.193,1952.566,1060.757,1960.852z"/>
						<path style="fill:#FFBE2C;" d="M1047.637,1824.022c0.474,1.573,0.953,3.122,1.412,4.692
							c5.934,20.085,13.807,38.897,21.867,58.184c8.85,21.186,26.505,64.51,5.466,84.587c-9.459,9.041-29.576,11.097-29.568,26.633
							c-0.002,11.324,1.099,23.507-4.879,33.764c-3.802,6.537-7.829,9.656-11.865,10.434c0.481,0.387,0.922,0.836,1.423,1.208
							c8.652,6.413,16.115-3.606,19.078-11.684c4.653-12.72,4.876-39.752,21.413-44.179c11.464-3.072,22.314-2.497,32.771-8.596
							C1094.417,1924.08,1074.886,1871.765,1047.637,1824.022z"/>
						<path style="fill:#FFBE2C;" d="M1113.321,2070.358c-6.568-7.952-13.703-15.352-22.208-21.313
							c-4.312,17.546-13.936,35.828-12.343,53.961c1.076,12.21,6.368,24.217,10.709,35.622c4.208,11.059,8.592,22.102,13.558,32.863
							c0.796-3.851,1.55-7.703,2.246-11.581C1110.724,2129.816,1113.336,2099.88,1113.321,2070.358z M1104.47,2116.877
							c-7.139,11.531-14.067-4.715-15.325-10.971c-1.149-5.658-2.699-17.699,1.835-23.381c1.318-5.202,5.481-10.737,11.466-7.104
							C1114.525,2082.749,1110.758,2106.719,1104.47,2116.877z"/>
						<path style="fill:#FFBE2C;" d="M228.648,2232.056c-1.159-12.774-5.242-25.003-10.037-36.837
							c-8.595-21.263-20.589-42.453-24.825-65.208c-2.595-13.909,0.048-27.818,0.694-41.774
							c0.817-17.822-3.416-32.207-14.216-46.427c-7.757-10.211-15.722-19.943-21.303-31.555c-3.521-7.342-4.974-15.505-6.859-23.388
							c-2.114-8.904-4.128-22.314-11.528-28.594c-3.999-3.388-8.126-3.824-11.927-2.574c-2.081,8.773-3.963,17.654-5.582,26.634
							c-22.413,123.999,3.089,245.565,63.265,345.692c6.997-21.443,13.472-41.294,27.511-59.45
							C222.572,2257.278,229.998,2247.006,228.648,2232.056z M180.247,2066.695c1.257-0.468,2.768-0.184,4.553,1.135
							c6.097,4.538,1.841,22.417-2.699,26.638c-1.153,1.078-2.699,1.082-3.725-0.196
							C174.118,2088.967,174.183,2068.989,180.247,2066.695z M176.363,2286.316c-17.36,0.203-21.328-24.489-22.732-36.979
							c-1.256-11.005-0.911-22.337-2.651-33.266c-2.792-17.527-8.753-34.044-13.618-51.042
							c-7.273-25.359-13.273-50.692-13.482-77.26c-0.082-10.791,0.359-22.053,2.305-32.913c0.389-14.454,3.401-28.364,11.259-40.148
							c0.712-1.059,2.444-1.032,3.324-0.265c11.957,10.507,21.821,28.486,25.111,44.025c5.493,25.962-1.752,53.957,6.64,79.325
							c7.543,22.797,27.813,39.334,28.593,64.713c0.525,17.45-2.737,36.96-5.882,54.207
							C193.355,2267.01,190.108,2286.156,176.363,2286.316z"/>
						<path style="fill:#FFBE2C;" d="M218.611,2195.219c-8.595-21.263-20.589-42.453-24.825-65.208
							c-2.595-13.909,0.048-27.818,0.694-41.774c0.51-11.213-0.976-21.075-4.845-30.389c2.223,7.219,3.734,14.615,3.907,22.206
							c0.489,22.084-10.252,45.625-2.044,67.207c11.216,29.541,35.066,60.191,26.915,93.694
							c-5.064,20.848-18.973,42.146-38.205,52.407c-3.941,2.11-7.645,3.176-11.131,3.449c5.395,10.602,11.126,21.033,17.254,31.213
							c6.997-21.443,13.472-41.294,27.511-59.45c8.729-11.297,16.155-21.569,14.806-36.519
							C227.49,2219.282,223.406,2207.053,218.611,2195.219z"/>
						<path style="fill:#FFBE2C;" d="M252.617,2153.756c-3.853-3.448-17.494-15.371-22.558-8.144
							c-4.406,6.291,1.122,15.279,4.837,20.4c0.633,0.886,0.525,1.773,0.069,2.471c5.867,7.096,13.736,12.413,21.771,17.036
							C257.044,2174.758,260.972,2161.232,252.617,2153.756z"/>
						<path style="fill:#FFBE2C;" d="M477.025,2003.202c-0.138-0.042-0.265-0.042-0.403-0.116
							c-7.187-3.74-15.299-4.005-22.983-6.114c-0.515,11.362,1.959,20.488,13.482,26.065c1.238,0.602,1.531,1.933,1.095,3.137
							c-1.979,5.486-6.966,14.746-4.367,20.78c2.482,5.77,18.846,17.438,22.582,6.134c2.973-8.984,3.446-21.697,1.488-30.948
							C486.355,2014.679,482.441,2008.138,477.025,2003.202z"/>
						<path style="fill:#FFBE2C;" d="M833.16,1935.043c-1.091,4.599-2.561,13.595,3.516,15.896
							c0.453,0.176,11.368,0.978,10.413-1.385c-0.579-1.381-1.122-2.778-1.642-4.189c-2.213-6.291-3.736-12.919-6.318-19.084
							c-2.923-6.963-7.452-12.54-15.442-13.541c-5.842-0.741-11.374-2.432-10.349,5.278c0.315,2.386,0.875,4.607,1.617,6.74
							c4.76,3.717,10.056,6.176,16.312,7.546C832.467,1932.573,833.473,1933.759,833.16,1935.043z"/>
						<path style="fill:#FFBE2C;" d="M262.261,2051.343c-4.605-2.026-9.258-3.963-13.908-5.923
							c-12.812-5.393-24.984-11.144-35.134-20.161c0.23,10.599-2.915,21.523,1.626,31.781c6.343,14.347,21.259,23.047,32.769,33.193
							c6.402-7.902,11.726-17.219,14.419-27.059C262.779,2060.392,266.191,2053.084,262.261,2051.343z"/>
					</g>
				</g>
				<g>
					<path style="fill:none;" d="M751.031,1917.145c6.143-40.815,55.144-53.77,83.166-76.95
						c7.857-6.494,17.245-15.022,19.083-25.624c2.207-12.64-5.25-22.682-17.851-24.758c-18.2-2.984-42.44,4.519-59.04-5.562
						c-7.776-4.73-10.528-11.27-10.892-20.331c-0.224-5.797,0.242-11.857-0.714-17.596c-1.411-8.501-7.622-11.642-14.711-15.214
						c-7.727-3.885-14.818-6.34-18.727-14.365c-2.369-4.83-5.846-11.404-1.796-16.257c3.662-4.365,13.24-2.317,17.939-1.856
						c14.113,1.407,27.365,1.6,41.105-2.57c24.892-7.549,46.555-20.618,72.807-22.571c-5.84-12.49-18.096-18.589-30.736-23.266
						c-1.956-0.732-1.578-3.69,0.213-4.331c7.985-2.808,17.874-5.931,25.559-11.255c-46.596-25.851-98.128-44.631-153.476-54.636
						c-0.069-0.011-0.136-0.015-0.208-0.031c-3.701,3.441-6.806,7.714-10.081,12.851c-3.548,5.608-8.197,11.324-14.699,13.629
						c-9.026,3.211-16.105,2.574-24.284-2.551c-7.737-4.86-20.574-13.714-30.248-9.767c-6.819,2.781-12.308,6.629-19.617,8.471
						c-6.37,1.595-14.711-1.121-20.841-2.501c-22.351-5.036-42.058-5.436-62.185,4.4c-10.601,7.181-19.79,16.169-26.346,27.662
						c-8.54,15.01-20.879,22.521-36.881,28.328c-35.017,12.72-72.399,17.024-93.236,51.821
						c-7.766,12.958-14.412,25.352-28.241,32.797c-16.662,8.984-37.42,13.503-41.753,34.704c-2.102,10.28,1.716,19.609,0.706,29.69
						c-0.859,8.512-7.175,14.443-12.659,20.45c-5.263,5.769-16.83,17.757-12.695,26.702c3.222,6.943,9.795,12.294,15.511,17.427
						c6.821-7.833,17.978-22.874,29.081-20.216c14.559,3.483,27.423,17.43,39.459,25.732c9.789,6.744,13.46,13.529,10.967,25.57
						c-1.39,6.74-3.471,8.85,3.787,11.888c6.621,2.77,13.105,5.815,19.405,9.279c8.393,4.615,16.617,9.521,24.87,14.358
						c7.785-0.161,15.538-1.005,23.154-2.942c27.242-6.951,49.014-23.698,67.471-44.424c0.771-0.871,2.43-1.221,3.322-0.257
						c7.683,8.405,19.448,19.406,19.16,31.877c-0.193,8.213-7.983,14.331-12.589,20.288c-5.146,6.644-9.348,14.101-11.455,22.303
						c-3.436,13.357,2.346,22.916,8.46,34.255c10.509,19.452,9.506,40.512,6.702,61.951c-3.174,24.362-6.081,47.996,2.035,71.79
						c5.236,15.39,13.36,29.284,23.127,42.161c14.132,5.267,30.866,9.578,39.724,20.664c4.363,5.444,4.218,12.739,3.356,19.36
						c-0.299,2.305-1.174,5.823-1.929,9.61c1.337,1.718,2.729,3.379,4.018,5.133c3.899,0.725,7.934,1.308,11.983,2.052
						c11.926,2.198,21.438,6.878,31.386,13.767c6.5,4.512,12.848,9.245,19.401,13.687c0.968,0.656,2.606,1.396,4.302,2.237
						c1.718-6.706,3.446-13.399,5.195-20.081c-0.985-3.568-2.211-6.802-3.824-9.387c-5.169-8.374-12.625-15.478-15.789-24.916
						c-2.037-6.118-2.68-15.098-6.646-20.307c-5.689-7.477-12.264-6.36-20.15-5.72c-5.983,0.483-10.851-1.538-12.788-7.745
						c-4.026-12.919-1.634-23.066,12.356-26.622c6.887-1.757,14.425-1.039,21.17-3.26c22.414-7.404,50.269-21.37,52.252-46.006
						c0.575-7.211,1.824-16.241,7.831-21.228c9.335-7.757,22.053-5.09,33.461-7.753c39.923-9.313,49.69-67.505,37.014-99.233
						C757.577,1954.68,748.143,1936.351,751.031,1917.145z"/>
					<path style="fill:none;" d="M848.354,2032.482c-19.025,3.237-37.163,23.829-45.894,39.978
						c-2.388,4.412-4.459,8.965-6.448,13.545c-2.574,10.58-2.317,21.236,5.203,30.696c2.864,3.591,6.932,7.76,7.923,12.444
						c1.441,6.82,0.146,13.948,1.652,20.726c8.088,36.346,47.114-13.004,52.661-26.553c5.825-14.224,1.509-30.346-0.762-45.027
						C861.465,2070.4,860.493,2030.414,848.354,2032.482z"/>
					<path style="fill:none;" d="M964.168,1715.398c-3.703-2.002-7.428-3.943-11.232-5.762
						c-11.051,26.146-10.052,51.836,3.079,77.264c11.955,23.166,30.926,43.788,39.771,68.399
						c9.101,25.352-3.247,42.71-14.373,64.959c-5.61,11.212-11.582,25.337-7.123,37.949c2.434,6.885,5.756,13.472,9.273,19.855
						c9.193,16.656,19.554,32.912,31.405,47.8c4.943,6.226,10.095,12.885,16.526,17.661c8.652,6.413,16.115-3.606,19.078-11.684
						c4.653-12.72,4.876-39.752,21.413-44.179c11.464-3.072,22.314-2.497,32.771-8.596
						C1085.813,1878.263,1036.15,1786.33,964.168,1715.398z"/>
					<path style="fill:none;" d="M1113.321,2070.358c-6.568-7.952-13.703-15.352-22.208-21.313
						c-4.312,17.546-13.936,35.828-12.343,53.961c1.076,12.21,6.368,24.217,10.709,35.622c4.208,11.059,8.592,22.102,13.558,32.863
						c0.796-3.851,1.55-7.703,2.246-11.581C1110.724,2129.816,1113.336,2099.88,1113.321,2070.358z"/>
					<path style="fill:none;" d="M218.611,2195.219c-8.595-21.263-20.589-42.453-24.825-65.208
						c-2.595-13.909,0.048-27.818,0.694-41.774c0.817-17.822-3.416-32.207-14.216-46.427c-7.757-10.211-15.722-19.943-21.303-31.555
						c-3.521-7.342-4.974-15.505-6.859-23.388c-2.114-8.904-4.128-22.314-11.528-28.594c-3.999-3.388-8.126-3.824-11.927-2.574
						c-2.081,8.773-3.963,17.654-5.582,26.634c-22.413,123.999,3.089,245.565,63.265,345.692
						c6.997-21.443,13.472-41.294,27.511-59.45c8.729-11.297,16.155-21.569,14.806-36.519
						C227.49,2219.282,223.406,2207.053,218.611,2195.219z"/>
					<path style="fill:none;" d="M252.617,2153.756c-3.853-3.448-17.494-15.371-22.558-8.144c-4.406,6.291,1.122,15.279,4.837,20.4
						c0.633,0.886,0.525,1.773,0.069,2.471c5.867,7.096,13.736,12.413,21.771,17.036
						C257.044,2174.758,260.972,2161.232,252.617,2153.756z"/>
					<path style="fill:none;" d="M477.025,2003.202c-0.138-0.042-0.265-0.042-0.403-0.116c-7.187-3.74-15.299-4.005-22.983-6.114
						c-0.515,11.362,1.959,20.488,13.482,26.065c1.238,0.602,1.531,1.933,1.095,3.137c-1.979,5.486-6.966,14.746-4.367,20.78
						c2.482,5.77,18.846,17.438,22.582,6.134c2.973-8.984,3.446-21.697,1.488-30.948
						C486.355,2014.679,482.441,2008.138,477.025,2003.202z"/>
					<path style="fill:none;" d="M833.16,1935.043c-1.091,4.599-2.561,13.595,3.516,15.896c0.453,0.176,11.368,0.978,10.413-1.385
						c-0.579-1.381-1.122-2.778-1.642-4.189c-2.213-6.291-3.736-12.919-6.318-19.084c-2.923-6.963-7.452-12.54-15.442-13.541
						c-5.842-0.741-11.374-2.432-10.349,5.278c0.315,2.386,0.875,4.607,1.617,6.74c4.76,3.717,10.056,6.176,16.312,7.546
						C832.467,1932.573,833.473,1933.759,833.16,1935.043z"/>
					<path style="fill:none;" d="M247.615,2090.232c6.402-7.902,11.726-17.219,14.419-27.059c0.744-2.781,4.156-10.089,0.226-11.83
						c-4.605-2.026-9.258-3.963-13.908-5.923c-12.812-5.393-24.984-11.144-35.134-20.161c0.23,10.599-2.915,21.523,1.626,31.781
						C221.189,2071.386,236.105,2080.086,247.615,2090.232z"/>
				</g>
			</g>
			<g style="opacity:0.5;">
				<path style="opacity:0.8;fill:#009EDB;" d="M248.506,1950.694c-7.234-14.308-18.13-23.641-22.629-39.867
					c-4.567-16.449-0.886-32.637,0.073-49.158c0.345-6.065-2.691-17.826-10.635-18.16c-15.25-0.656-20.256,20.3-21.255,31.298
					c-0.226,2.493-0.295,5.067-0.345,7.668c-2.974,14.719-0.537,30.423,4.68,45.134c5.703,16.046,15.918,38.525,33.212,44.989
					c0.483,0.682,1.078,1.254,1.893,1.603c1.778,1.258,4.12,1.104,6.32,0.131c0.455,0.027,0.886,0.111,1.343,0.122
					c3.493,0.038,6.469-2.708,8.002-5.623C252.836,1961.845,252.094,1957.79,248.506,1950.694z"/>
				<path style="opacity:0.8;fill:#009EDB;" d="M287.408,1993.305c-1.554-2.563-3.85-4.952-6.959-5.286
					c-2.344-0.249-4.944,1.5-6.477,3.08c-0.462,0.487-0.88,1.017-1.245,1.566c-2.647,2.052-3.594,5.052-2.302,8.478
					c1.118,2.98,3.565,5.734,6.502,7.023c1.747,0.779,3.656,0.438,5.361-0.242c1.314-0.771,1.529-0.886,0.658-0.353
					c0.602-0.284,1.236-0.667,1.794-1.086c1.037-0.801,2.014-1.703,2.708-2.842C289.508,2000.263,289.462,1996.673,287.408,1993.305
					z"/>
				<path style="opacity:0.8;fill:#009EDB;" d="M327.617,2246.514c-2.055-10.822-10.289-16.112-20.244-10.104
					c-8.9,5.366-11.635,17.941-11.807,27.481c-0.154,8.224,3.577,21.835,14.703,19.111c0.84-0.207,1.64-0.464,2.407-0.771
					c3-0.242,6.17-1.953,8.898-5.336C328.121,2268.762,329.519,2256.503,327.617,2246.514z"/>
				<path style="opacity:0.8;fill:#009EDB;" d="M322.2,2291c0.012-1.462-0.493-2.778-2.294-2.854c-0.815-0.039-1.546,0.2-2.25,0.522
					c-1.682,0.13-3.412,0.852-4.723,1.622c-3.604,2.11-5.642,7.143-3.913,11.013c1.155,2.582,3.867,2.072,6.078,0.89
					c1.918,0.802,4.147-0.099,5.758-1.802C323.276,2297.824,323.974,2294.004,322.2,2291z"/>
				<path style="opacity:0.8;fill:#009EDB;" d="M989.091,2331.289c-4.093-20.143-25.365-9.809-35.308-1.319
					c-10.077,8.615-17.222,22.318-16.24,35.84c0.03,0.418,0.121,0.763,0.174,1.159c-0.787,4.568-0.297,9.144,2.267,13.368
					c7.072,11.631,24.64,0.476,31.632-5.404c5.485-4.615,9.475-13.211,12.549-19.51
					C987.669,2348.245,990.73,2339.345,989.091,2331.289z"/>
				<path style="opacity:0.8;fill:#009EDB;" d="M936.681,2398.043c0.322-1.128,0.278-2.248-0.621-2.984
					c-1.995-1.672-4.325-1.017-6.33,0.211c-0.018,0.011-0.016,0.015-0.025,0.015c-0.075,0.035-0.138,0.076-0.217,0.111l0.006,0.008
					c-0.514,0.23-1.007,0.487-1.473,0.821c-1.822,1.35-3.429,3.176-3.986,5.436c-0.065,0.261-0.042,0.51-0.055,0.767
					c-0.793,0.679-1.412,1.595-1.561,2.363c-0.428,2.275-1.093,6.317,2.235,6.628c3.488,0.323,6.3-2.919,8.063-5.497
					c0.688-0.997,1.281-2.06,1.923-3.092c0.131-0.222,0.274-0.441,0.432-0.656c-0.965,1.078-0.837,0.928,0.37-0.457
					C936.229,2400.629,936.743,2399.37,936.681,2398.043z"/>
				<path style="opacity:0.8;fill:#009EDB;" d="M912.762,1865.651c-0.433-0.737-0.936-1.273-1.456-1.692
					c-3.991-7.802-14.492,0.069-17.759,5.271c-3.79,6.038-8.454,16.238-4.281,23.147c1.571,2.601,3.646,3.591,5.877,3.556
					c1.039,1.366,2.482,2.344,4.485,2.616c7.319,1.005,10.95-9.379,12.047-14.727c0.23-1.124,0.445-2.286,0.647-3.468
					C914.316,1875.482,915.202,1869.893,912.762,1865.651z"/>
			</g>
		</g>
		<g>
			<rect x="482.803" y="1501.682" style="fill:#C6DFE5;" width="124.02" height="13.062"/>
			<rect x="482.803" y="1446.878" style="fill:#C6DFE5;" width="124.02" height="13.062"/>
			<rect x="482.803" y="1392.067" style="fill:#C6DFE5;" width="124.02" height="13.062"/>
			<rect x="482.803" y="1337.262" style="fill:#C6DFE5;" width="124.02" height="13.062"/>
			<rect x="482.803" y="1282.457" style="fill:#C6DFE5;" width="124.02" height="13.062"/>
			<rect x="482.803" y="1227.647" style="fill:#C6DFE5;" width="124.02" height="13.062"/>
			<rect x="482.803" y="1172.842" style="fill:#C6DFE5;" width="124.02" height="13.062"/>
			<rect x="482.803" y="1118.038" style="fill:#C6DFE5;" width="124.02" height="13.062"/>
			<rect x="482.803" y="1063.227" style="fill:#C6DFE5;" width="124.02" height="13.062"/>
			<rect x="482.803" y="1008.422" style="fill:#C6DFE5;" width="124.02" height="13.062"/>
			<rect x="482.803" y="953.617" style="fill:#C6DFE5;" width="124.02" height="13.062"/>
			<rect x="482.803" y="898.806" style="fill:#C6DFE5;" width="124.02" height="13.062"/>
			<rect x="482.803" y="844.002" style="fill:#C6DFE5;" width="124.02" height="13.062"/>
			<rect x="482.803" y="789.197" style="fill:#C6DFE5;" width="124.02" height="13.062"/>
			<rect x="482.803" y="734.386" style="fill:#C6DFE5;" width="124.02" height="13.062"/>
			<rect x="482.803" y="679.581" style="fill:#C6DFE5;" width="124.02" height="13.062"/>
			<rect x="482.803" y="624.777" style="fill:#C6DFE5;" width="124.02" height="13.062"/>
			<rect x="482.803" y="569.972" style="fill:#C6DFE5;" width="124.02" height="13.062"/>
			<rect x="482.803" y="515.161" style="fill:#C6DFE5;" width="124.02" height="13.062"/>
			<rect x="482.803" y="460.356" style="fill:#C6DFE5;" width="124.02" height="13.062"/>
			<rect x="482.803" y="405.552" style="fill:#C6DFE5;" width="124.02" height="13.062"/>
			<rect x="482.803" y="350.741" style="fill:#C6DFE5;" width="124.02" height="13.062"/>
			<rect x="482.803" y="295.936" style="fill:#C6DFE5;" width="124.02" height="13.062"/>
			<rect x="482.803" y="241.131" style="fill:#C6DFE5;" width="124.02" height="13.062"/>
			<rect x="482.803" y="186.321" style="fill:#C6DFE5;" width="124.02" height="13.062"/>
			<rect x="516.35" y="131.516" style="fill:#C6DFE5;" width="90.472" height="13.062"/>
		</g>
	</g>
</g>
</svg>
